<?xml version="1.0" encoding="utf-8"?>
<!-- Generator: Adobe Illustrator 15.1.0, SVG Export Plug-In . SVG Version: 6.00 Build 0)  -->
<!DOCTYPE svg PUBLIC "-//W3C//DTD SVG 1.1//EN" "http://www.w3.org/Graphics/SVG/1.1/DTD/svg11.dtd">
<svg version="1.1" id="Layer_1" xmlns="http://www.w3.org/2000/svg" xmlns:xlink="http://www.w3.org/1999/xlink" x="0px" y="0px"
	 width="1000px" height="347.541px" viewBox="0 0 1000 347.541" enable-background="new 0 0 1000 347.541" xml:space="preserve">
<g>
	<g>
		
			<rect x="85.234" y="93.131" transform="matrix(0.7071 0.7071 -0.7071 0.7071 168.9799 -65.3675)" fill="#3AAFA9" width="156.323" height="156.323"/>
		<polygon fill="#FFFFFF" points="255.995,171.293 203.98,223.309 203.98,202.185 234.871,171.293 203.98,140.401 203.98,119.278 		
			"/>
		<polygon fill="#FFFFFF" points="189.723,126.144 189.723,162.382 136.905,162.382 136.905,126.308 163.396,99.817 		"/>
		<polygon fill="#FFFFFF" points="189.723,174.693 189.723,216.443 163.396,242.769 136.905,216.278 136.905,174.693 		"/>
		<polygon fill="#FFFFFF" points="122.812,140.401 91.92,171.293 122.812,202.185 122.812,223.309 70.796,171.293 122.812,119.278 
					"/>
	</g>
	<g>
		<g>
			<path fill="#3AAFA9" d="M321.096,130.693v28.81h30.41v-28.81h13.125v71.919h-13.125v-31.691h-30.41v31.691h-13.125v-71.919
				H321.096z"/>
			<path fill="#3AAFA9" d="M392.695,130.693v41.935c0,14.085,5.869,20.595,14.726,20.595c9.497,0,15.152-6.51,15.152-20.595v-41.935
				h13.124v41.081c0,22.194-11.417,32.012-28.703,32.012c-16.646,0-27.423-9.283-27.423-31.905v-41.188H392.695z"/>
			<path fill="#3AAFA9" d="M508.364,199.305c-4.588,1.707-13.551,4.055-23.154,4.055c-12.165,0-21.341-3.095-28.17-9.604
				c-6.402-6.082-10.138-15.579-10.03-26.463c0-22.728,16.219-37.347,40.014-37.347c8.856,0,15.792,1.814,19.101,3.415
				l-2.881,10.564c-3.948-1.708-8.75-3.095-16.326-3.095c-15.365,0-26.143,9.07-26.143,25.823c0,16.326,10.03,26.036,24.969,26.036
				c4.695,0,8.216-0.64,9.924-1.493v-17.927h-12.698v-10.351h25.396V199.305z"/>
			<path fill="#3AAFA9" d="M585.619,165.906c0,24.116-14.619,37.88-34.466,37.88c-20.274,0-33.078-15.473-33.078-36.6
				c0-22.088,13.871-37.667,34.146-37.667C573.241,129.52,585.619,145.418,585.619,165.906z M531.946,166.973
				c0,14.619,7.362,26.25,19.954,26.25c12.697,0,19.847-11.738,19.847-26.783c0-13.552-6.723-26.356-19.847-26.356
				C538.882,140.083,531.946,152.141,531.946,166.973z"/>
			<path fill="#3AAFA9" d="M621.152,169.641v9.07h-27.21v-9.07H621.152z"/>
			<path fill="#3AAFA9" d="M684.853,200.479c-3.095,1.601-9.924,3.201-18.566,3.201c-22.835,0-36.706-14.299-36.706-36.173
				c0-23.688,16.432-37.987,38.413-37.987c8.644,0,14.832,1.814,17.5,3.201l-2.881,10.457c-3.415-1.494-8.11-2.774-14.085-2.774
				c-14.619,0-25.183,9.177-25.183,26.463c0,15.792,9.283,25.93,25.075,25.93c5.336,0,10.884-1.067,14.299-2.668L684.853,200.479z"
				/>
			<path fill="#3AAFA9" d="M757.096,165.906c0,24.116-14.619,37.88-34.466,37.88c-20.274,0-33.078-15.473-33.078-36.6
				c0-22.088,13.871-37.667,34.146-37.667C744.718,129.52,757.096,145.418,757.096,165.906z M703.423,166.973
				c0,14.619,7.362,26.25,19.954,26.25c12.697,0,19.847-11.738,19.847-26.783c0-13.552-6.723-26.356-19.847-26.356
				C710.358,140.083,703.423,152.141,703.423,166.973z"/>
			<path fill="#3AAFA9" d="M768.407,131.654c5.762-0.96,13.125-1.494,20.914-1.494c13.444,0,22.729,2.774,29.344,8.323
				c6.936,5.655,11.204,14.191,11.204,26.462c0,12.805-4.375,22.408-11.204,28.597c-7.149,6.51-18.566,9.817-32.545,9.817
				c-7.683,0-13.445-0.427-17.713-0.961V131.654z M781.532,192.582c1.813,0.32,4.588,0.32,7.256,0.32
				c17.072,0.106,27.209-9.283,27.209-27.53c0.107-15.899-9.069-24.969-25.502-24.969c-4.162,0-7.149,0.32-8.963,0.747V192.582z"/>
			<path fill="#3AAFA9" d="M881.517,170.708h-27.103v21.127h30.304v10.777h-43.429v-71.919h41.828v10.777h-28.703v18.566h27.103
				V170.708z"/>
			<path fill="#3AAFA9" d="M896.243,131.654c4.908-0.854,12.271-1.494,19.847-1.494c10.351,0,17.394,1.708,22.195,5.762
				c3.947,3.308,6.188,8.323,6.188,14.405c0,9.283-6.296,15.579-13.018,18.033v0.32c5.121,1.921,8.216,6.936,10.029,13.872
				c2.241,8.963,4.162,17.286,5.656,20.061H933.59c-1.067-2.134-2.774-8.003-4.802-16.966c-2.027-9.391-5.442-12.378-12.911-12.592
				h-6.616v29.558h-13.018V131.654z M909.261,163.452h7.79c8.856,0,14.405-4.695,14.405-11.844c0-7.896-5.549-11.524-14.086-11.524
				c-4.161,0-6.829,0.32-8.109,0.64V163.452z"/>
		</g>
	</g>
</g>
</svg>
