<?xml version="1.0" encoding="utf-8"?>
<!-- Generator: Adobe Illustrator 15.1.0, SVG Export Plug-In . SVG Version: 6.00 Build 0)  -->
<!DOCTYPE svg PUBLIC "-//W3C//DTD SVG 1.1//EN" "http://www.w3.org/Graphics/SVG/1.1/DTD/svg11.dtd">
<svg version="1.1" id="Layer_1" xmlns="http://www.w3.org/2000/svg" xmlns:xlink="http://www.w3.org/1999/xlink" x="0px" y="0px"
	 width="1000px" height="1000px" viewBox="0 0 1000 1000" enable-background="new 0 0 1000 1000" xml:space="preserve">
<path d="M500,209.999L285.653,424.347L500,638.692l214.347-214.346L500,209.999z M500,561.208l-50.89-50.889v-74.105h101.785v74.1
	L500,561.208z M550.896,412.479H449.11v-74.105L500,287.483l50.896,50.896V412.479z M421.948,324.515v41.021l-58.811,58.811
	l58.811,58.811v41.021l-99.832-99.832L421.948,324.515z M578.374,482.835l58.488-58.488l-58.488-58.488v-41.021l99.509,99.51
	l-99.509,99.51V482.835z"/>
<g>
	<g>
		<path d="M160.496,709.028v31.916h33.688v-31.916h14.542v79.674h-14.542v-35.109h-33.688v35.109h-14.541v-79.674H160.496z"/>
		<path d="M239.816,709.028v46.455c0,15.605,6.501,22.818,16.313,22.818c10.521,0,16.786-7.213,16.786-22.818v-46.455h14.537v45.512
			c0,24.586-12.646,35.461-31.797,35.461c-18.442,0-30.379-10.281-30.379-35.344v-45.629H239.816z"/>
		<path d="M367.957,785.036c-5.081,1.893-15.012,4.494-25.651,4.494c-13.477,0-23.643-3.43-31.206-10.639
			c-7.093-6.738-11.233-17.26-11.113-29.318c0-25.178,17.968-41.373,44.328-41.373c9.813,0,17.495,2.012,21.161,3.783l-3.191,11.703
			c-4.376-1.891-9.693-3.43-18.088-3.43c-17.021,0-28.96,10.051-28.96,28.607c0,18.088,11.109,28.844,27.661,28.844
			c5.2,0,9.1-0.709,10.992-1.654v-19.861h-14.066v-11.467h28.134V785.036z"/>
		<path d="M453.54,748.038c0,26.717-16.194,41.963-38.179,41.963c-22.463,0-36.646-17.139-36.646-40.547
			c0-24.467,15.366-41.725,37.827-41.725C439.828,707.729,453.54,725.343,453.54,748.038z M394.082,749.22
			c0,16.195,8.154,29.082,22.105,29.082c14.064,0,21.987-13.008,21.987-29.672c0-15.016-7.448-29.199-21.987-29.199
			C401.765,719.431,394.082,732.79,394.082,749.22z"/>
		<path d="M492.905,752.175v10.047h-30.144v-10.047H492.905z"/>
		<path d="M563.474,786.339c-3.429,1.773-10.992,3.547-20.565,3.547c-25.301,0-40.666-15.844-40.666-40.076
			c0-26.24,18.203-42.08,42.557-42.08c9.571,0,16.43,2.008,19.387,3.545l-3.192,11.584c-3.785-1.654-8.985-3.074-15.604-3.074
			c-16.197,0-27.896,10.168-27.896,29.316c0,17.496,10.283,28.727,27.776,28.727c5.914,0,12.061-1.184,15.841-2.957L563.474,786.339
			z"/>
		<path d="M643.507,748.038c0,26.717-16.196,41.963-38.182,41.963c-22.461,0-36.644-17.139-36.644-40.547
			c0-24.467,15.366-41.725,37.827-41.725C629.795,707.729,643.507,725.343,643.507,748.038z M584.048,749.22
			c0,16.195,8.155,29.082,22.104,29.082c14.066,0,21.986-13.008,21.986-29.672c0-15.016-7.447-29.199-21.986-29.199
			C591.73,719.431,584.048,732.79,584.048,749.22z"/>
		<path d="M656.039,710.091c6.382-1.063,14.539-1.652,23.17-1.652c14.892,0,25.179,3.072,32.505,9.221
			c7.685,6.264,12.413,15.721,12.413,29.313c0,14.188-4.848,24.826-12.413,31.68c-7.92,7.213-20.565,10.879-36.054,10.879
			c-8.512,0-14.893-0.475-19.621-1.068V710.091z M670.578,777.589c2.008,0.357,5.082,0.357,8.039,0.357
			c18.912,0.115,30.143-10.285,30.143-30.5c0.119-17.613-10.049-27.662-28.252-27.662c-4.61,0-7.922,0.355-9.93,0.828V777.589z"/>
		<path d="M781.344,753.356H751.32v23.406h33.57v11.939h-48.113v-79.674h46.338v11.938H751.32v20.57h30.023V753.356z"/>
		<path d="M797.658,710.091c5.438-0.943,13.593-1.652,21.986-1.652c11.467,0,19.268,1.889,24.588,6.383
			c4.373,3.662,6.857,9.219,6.857,15.959c0,10.281-6.978,17.258-14.422,19.977v0.354c5.673,2.129,9.102,7.686,11.11,15.367
			c2.482,9.932,4.61,19.152,6.267,22.225h-15.014c-1.182-2.363-3.072-8.867-5.319-18.797c-2.245-10.402-6.029-13.713-14.304-13.947
			h-7.328v32.744h-14.422V710.091z M812.08,745.317h8.629c9.811,0,15.959-5.199,15.959-13.121c0-8.748-6.148-12.766-15.604-12.766
			c-4.61,0-7.567,0.354-8.983,0.709V745.317z"/>
	</g>
</g>
</svg>
