<?xml version="1.0" encoding="utf-8"?>
<!-- Generator: Adobe Illustrator 15.1.0, SVG Export Plug-In . SVG Version: 6.00 Build 0)  -->
<!DOCTYPE svg PUBLIC "-//W3C//DTD SVG 1.1//EN" "http://www.w3.org/Graphics/SVG/1.1/DTD/svg11.dtd">
<svg version="1.1" id="Layer_1" xmlns="http://www.w3.org/2000/svg" xmlns:xlink="http://www.w3.org/1999/xlink" x="0px" y="0px"
	 width="1000px" height="1000px" viewBox="0 0 1000 1000" enable-background="new 0 0 1000 1000" xml:space="preserve">
<g>
	<g>
		
			<rect x="310.014" y="219.2" transform="matrix(0.7071 0.7071 -0.7071 0.7071 435.7856 -233.7056)" fill="#3AAFA9" width="379.972" height="379.972"/>
		<polygon fill="#FFFFFF" points="725.081,409.186 598.65,535.621 598.65,484.273 673.735,409.186 598.65,334.099 598.65,282.755 		
			"/>
		<polygon fill="#FFFFFF" points="563.993,299.442 563.993,387.526 435.61,387.526 435.61,299.841 500,235.452 		"/>
		<polygon fill="#FFFFFF" points="563.993,417.451 563.993,518.934 500,582.92 435.61,518.529 435.61,417.451 		"/>
		<polygon fill="#FFFFFF" points="401.354,334.099 326.265,409.186 401.354,484.273 401.354,535.621 274.92,409.186 
			401.354,282.755 		"/>
	</g>
	<g>
		<g>
			<path fill="#3AAFA9" d="M81.896,759.775v39.307h41.487v-39.307h17.908v98.119h-17.908v-43.236H81.896v43.236H63.988v-98.119
				H81.896z"/>
			<path fill="#3AAFA9" d="M179.58,759.775v57.211c0,19.219,8.006,28.102,20.09,28.102c12.957,0,20.673-8.883,20.673-28.102v-57.211
				h17.902v56.049c0,30.279-15.573,43.67-39.158,43.67c-22.712,0-37.412-12.66-37.412-43.525v-56.193H179.58z"/>
			<path fill="#3AAFA9" d="M337.387,853.381c-6.257,2.33-18.486,5.535-31.59,5.535c-16.597,0-29.116-4.225-38.431-13.104
				c-8.735-8.297-13.834-21.254-13.687-36.104c0-31.008,22.128-50.951,54.591-50.951c12.085,0,21.546,2.475,26.061,4.656
				l-3.931,14.414c-5.389-2.328-11.938-4.223-22.275-4.223c-20.962,0-35.664,12.377-35.664,35.23
				c0,22.275,13.682,35.52,34.064,35.52c6.404,0,11.207-0.873,13.537-2.035v-24.461H302.74v-14.121h34.646V853.381z"/>
			<path fill="#3AAFA9" d="M442.784,807.816c0,32.902-19.944,51.678-47.019,51.678c-27.663,0-45.129-21.105-45.129-49.932
				c0-30.133,18.924-51.387,46.585-51.387C425.897,758.176,442.784,779.867,442.784,807.816z M369.561,809.271
				c0,19.945,10.042,35.816,27.223,35.816c17.321,0,27.078-16.02,27.078-36.543c0-18.49-9.173-35.959-27.078-35.959
				C379.021,772.586,369.561,789.039,369.561,809.271z"/>
			<path fill="#3AAFA9" d="M491.263,812.912v12.373h-37.122v-12.373H491.263z"/>
			<path fill="#3AAFA9" d="M578.169,854.984c-4.223,2.184-13.537,4.369-25.327,4.369c-31.158,0-50.08-19.512-50.08-49.355
				c0-32.314,22.417-51.822,52.408-51.822c11.787,0,20.234,2.473,23.875,4.367l-3.931,14.266
				c-4.661-2.039-11.065-3.785-19.218-3.785c-19.947,0-34.354,12.521-34.354,36.102c0,21.549,12.664,35.377,34.207,35.377
				c7.283,0,14.853-1.457,19.508-3.641L578.169,854.984z"/>
			<path fill="#3AAFA9" d="M676.73,807.816c0,32.902-19.945,51.678-47.021,51.678c-27.66,0-45.127-21.105-45.127-49.932
				c0-30.133,18.924-51.387,46.585-51.387C659.845,758.176,676.73,779.867,676.73,807.816z M603.506,809.271
				c0,19.945,10.044,35.816,27.223,35.816c17.322,0,27.076-16.02,27.076-36.543c0-18.49-9.172-35.959-27.076-35.959
				C612.968,772.586,603.506,789.039,603.506,809.271z"/>
			<path fill="#3AAFA9" d="M692.164,761.086c7.859-1.311,17.905-2.037,28.534-2.037c18.34,0,31.009,3.783,40.03,11.355
				c9.464,7.715,15.287,19.361,15.287,36.1c0,17.473-5.97,30.574-15.287,39.016c-9.753,8.883-25.326,13.396-44.4,13.396
				c-10.482,0-18.34-0.584-24.164-1.314V761.086z M710.069,844.209c2.473,0.441,6.259,0.441,9.9,0.441
				c23.29,0.143,37.121-12.666,37.121-37.563c0.146-21.691-12.375-34.064-34.793-34.064c-5.678,0-9.756,0.436-12.229,1.018V844.209z
				"/>
			<path fill="#3AAFA9" d="M846.479,814.367h-36.974v28.826h41.343v14.701h-59.253v-98.119h57.065v14.703h-39.155v25.332h36.974
				V814.367z"/>
			<path fill="#3AAFA9" d="M866.57,761.086c6.697-1.164,16.74-2.037,27.077-2.037c14.121,0,23.728,2.326,30.28,7.861
				c5.385,4.512,8.445,11.354,8.445,19.654c0,12.662-8.594,21.252-17.762,24.602v0.434c6.986,2.623,11.209,9.465,13.684,18.928
				c3.057,12.229,5.677,23.584,7.717,27.367h-18.489c-1.456-2.91-3.784-10.918-6.551-23.148
				c-2.765-12.811-7.426-16.887-17.616-17.176h-9.024v40.324H866.57V761.086z M884.331,804.467h10.627
				c12.082,0,19.653-6.404,19.653-16.16c0-10.771-7.571-15.721-19.217-15.721c-5.678,0-9.319,0.438-11.063,0.873V804.467z"/>
		</g>
	</g>
</g>
</svg>
