<?xml version="1.0" encoding="utf-8"?>
<!-- Generator: Adobe Illustrator 15.1.0, SVG Export Plug-In . SVG Version: 6.00 Build 0)  -->
<!DOCTYPE svg PUBLIC "-//W3C//DTD SVG 1.1//EN" "http://www.w3.org/Graphics/SVG/1.1/DTD/svg11.dtd">
<svg version="1.1" id="Layer_1" xmlns="http://www.w3.org/2000/svg" xmlns:xlink="http://www.w3.org/1999/xlink" x="0px" y="0px"
	 width="1000px" height="1000px" viewBox="0 0 1000 1000" enable-background="new 0 0 1000 1000" xml:space="preserve">
<path d="M163.797,388.66L52.457,500l111.34,111.34L275.137,500L163.797,388.66z M123.254,469.451L92.705,500l30.549,30.549v21.308
	L71.396,500l51.857-51.856V469.451z M190.234,544.654l-26.438,26.438l-26.436-26.435v-38.493h52.873V544.654z M190.234,493.836
	h-52.873v-38.493l26.436-26.435l26.438,26.438V493.836z M204.506,530.381L234.889,500l-30.383-30.381v-21.308L256.197,500
	l-51.691,51.689V530.381z"/>
<g>
	<g>
		<path d="M321.498,458.552v28.811h30.41v-28.811h13.125v71.919h-13.125v-31.691h-30.41v31.691h-13.125v-71.919H321.498z"/>
		<path d="M393.096,458.552v41.935c0,14.085,5.869,20.595,14.727,20.595c9.496,0,15.152-6.51,15.152-20.595v-41.935h13.123v41.081
			c0,22.194-11.416,32.012-28.703,32.012c-16.646,0-27.422-9.283-27.422-31.905v-41.188H393.096z"/>
		<path d="M508.766,527.163c-4.588,1.707-13.551,4.055-23.154,4.055c-12.166,0-21.342-3.095-28.17-9.604
			c-6.402-6.082-10.139-15.579-10.031-26.463c0-22.729,16.219-37.347,40.016-37.347c8.855,0,15.791,1.813,19.1,3.415l-2.881,10.563
			c-3.947-1.708-8.75-3.095-16.326-3.095c-15.365,0-26.143,9.07-26.143,25.822c0,16.326,10.029,26.036,24.969,26.036
			c4.695,0,8.217-0.64,9.924-1.493v-17.927h-12.697v-10.351h25.395V527.163z"/>
		<path d="M586.021,493.765c0,24.115-14.619,37.88-34.467,37.88c-20.273,0-33.078-15.473-33.078-36.6
			c0-22.088,13.871-37.667,34.146-37.667C573.643,457.378,586.021,473.276,586.021,493.765z M532.348,494.831
			c0,14.619,7.363,26.25,19.955,26.25c12.697,0,19.846-11.738,19.846-26.783c0-13.552-6.723-26.355-19.846-26.355
			C539.283,467.942,532.348,479.999,532.348,494.831z"/>
		<path d="M621.555,497.499v9.07h-27.211v-9.07H621.555z"/>
		<path d="M685.254,528.337c-3.094,1.601-9.924,3.201-18.566,3.201c-22.834,0-36.705-14.299-36.705-36.174
			c0-23.688,16.432-37.986,38.412-37.986c8.645,0,14.832,1.814,17.5,3.201l-2.881,10.457c-3.414-1.494-8.109-2.774-14.084-2.774
			c-14.619,0-25.184,9.177-25.184,26.463c0,15.792,9.283,25.93,25.076,25.93c5.336,0,10.883-1.067,14.299-2.668L685.254,528.337z"/>
		<path d="M757.498,493.765c0,24.115-14.619,37.88-34.467,37.88c-20.273,0-33.078-15.473-33.078-36.6
			c0-22.088,13.871-37.667,34.146-37.667C745.119,457.378,757.498,473.276,757.498,493.765z M703.824,494.831
			c0,14.619,7.363,26.25,19.955,26.25c12.697,0,19.846-11.738,19.846-26.783c0-13.552-6.723-26.355-19.846-26.355
			C710.76,467.942,703.824,479.999,703.824,494.831z"/>
		<path d="M768.809,459.513c5.762-0.961,13.125-1.494,20.914-1.494c13.445,0,22.729,2.773,29.344,8.322
			c6.936,5.656,11.205,14.191,11.205,26.463c0,12.805-4.375,22.408-11.205,28.597c-7.148,6.51-18.566,9.817-32.545,9.817
			c-7.682,0-13.445-0.427-17.713-0.961V459.513z M781.934,520.44c1.814,0.32,4.588,0.32,7.256,0.32
			c17.072,0.106,27.209-9.283,27.209-27.529c0.107-15.9-9.068-24.97-25.502-24.97c-4.162,0-7.148,0.32-8.963,0.747V520.44z"/>
		<path d="M881.918,498.565h-27.102v21.128h30.303v10.777h-43.428v-71.919h41.828v10.777h-28.703v18.566h27.102V498.565z"/>
		<path d="M896.645,459.513c4.908-0.854,12.271-1.494,19.848-1.494c10.35,0,17.393,1.707,22.195,5.762
			c3.947,3.308,6.188,8.322,6.188,14.405c0,9.283-6.295,15.579-13.018,18.032v0.32c5.121,1.922,8.217,6.937,10.029,13.872
			c2.242,8.963,4.162,17.286,5.656,20.061h-13.551c-1.068-2.134-2.775-8.003-4.803-16.966c-2.027-9.391-5.441-12.378-12.91-12.592
			h-6.617v29.558h-13.018V459.513z M909.662,491.31h7.791c8.855,0,14.404-4.694,14.404-11.844c0-7.896-5.549-11.523-14.086-11.523
			c-4.16,0-6.828,0.319-8.109,0.64V491.31z"/>
	</g>
</g>
</svg>
