<?xml version="1.0" standalone="no"?>
<!DOCTYPE svg PUBLIC "-//W3C//DTD SVG 1.1//EN" "http://www.w3.org/Graphics/SVG/1.1/DTD/svg11.dtd">
<svg xmlns="http://www.w3.org/2000/svg">
<defs >
<font id="SourceCodePro" horiz-adv-x="599" ><font-face
    font-family="Source Code Pro"
    units-per-em="1000"
    panose-1="2 11 7 9 3 4 3 2 2 4"
    ascent="984"
    descent="-273"
    alphabetic="0" />
<glyph unicode=" " glyph-name="space" horiz-adv-x="600" />
<glyph unicode="!" glyph-name="exclam" horiz-adv-x="600" d="M232 537L227 670H373L368 537L348 255H252L232 537ZM200 90Q200 135 228 162T300 190Q343 190 371 163T400 90Q400 45 372 17T300 -12Q257 -12 229 16T200 90Z" />
<glyph unicode="&quot;" glyph-name="quotedbl" horiz-adv-x="600" d="M88 540L83 685H253L248 540L213 303H123L88 540ZM353 540L348 685H518L513 540L478 303H388L353 540Z" />
<glyph unicode="#" glyph-name="numbersign" horiz-adv-x="600" d="M144 187H70V281H155L169 391H90V485H181L202 650H286L266 485H370L391 650H475L455 485H534V391H443L430 281H514V187H419L396 0H311L333 187H230L207 0H122L144 187ZM344 281L358 391H254L241
281H344Z" />
<glyph unicode="$" glyph-name="dollar" horiz-adv-x="600" d="M440 449Q405 474 374 486T301 499Q232 499 232 453Q232 435 253 423T307 399T377 373T447 338T501 285T523 209Q523 146 480 100T353 39V-110H255V36Q206 41 154 61T64 115L128 215Q176 186 218
170T309 153Q345 153 364 165T383 198Q383 219 362 233T308 260T237 287T167 322T113 374T91 451Q91 516 135 559T255 614V745H353V615Q405 608 443 587T513 533L440 449Z" />
<glyph unicode="%" glyph-name="percent" horiz-adv-x="600" d="M173 312Q141 312 114 324T67 358T36 411T25 482Q25 521 36 551T67 603T114 636T173 648Q205 648 232 637T279 604T310 552T321 482Q321 443 310 412T279 358T232 324T173 312ZM173 391Q192 391
206 411T221 482Q221 533 207 551T173 569Q154 569 140 551T125 482Q125 431 139 411T173 391ZM18 101L204 274L255 227L93 28L18 101ZM584 551L398 377L347 425L509 624L584 551ZM428 -12Q396 -12 369 0T322 34T291 87T280 158Q280 197 291 227T322 279T369 312T428
324Q460 324 487 313T534 280T565 228T576 158Q576 119 565 88T534 34T487 0T428 -12ZM428 67Q447 67 461 87T476 158Q476 209 462 227T428 245Q409 245 395 227T380 158Q380 107 394 87T428 67Z" />
<glyph unicode="&amp;" glyph-name="ampersand" horiz-adv-x="600" d="M162 183Q162 146 186 123T251 100Q283 100 315 123Q280 153 249 186T191 256Q177 239 170 221T162 183ZM207 494Q207 460 226 419Q254 439 272 462T291 516Q291 539 282 553T250 567Q231
567 219 548T207 494ZM586 368Q571 308 549 254T495 148Q546 116 586 107L551 -12Q483 4 413 51Q376 22 332 5T232 -12Q181 -12 142 3T77 43T37 102T23 174Q23 206 31 232T54 280T88 320T128 353Q108 391 97 426T86 493Q86 528 97 559T129 613T180 650T247 664Q321
664 362 624T404 516Q404 485 393 460T365 412T325 371T280 334Q304 303 334 274T397 218Q415 250 429 287T452 368H586Z" />
<glyph unicode="&apos;" glyph-name="quotesingle" horiz-adv-x="600" d="M220 540L215 685H385L380 540L345 303H255L220 540Z" />
<glyph unicode="(" glyph-name="parenleft" horiz-adv-x="600" d="M392 -179Q294 -92 238 22T181 278Q181 420 237 534T392 735L474 670Q385 583 345 490T304 278Q304 219 314 167T344 66T397 -26T474 -114L392 -179V-179Z" />
<glyph unicode=")" glyph-name="parenright" horiz-adv-x="600" d="M126 -114Q171 -71 203 -27T255 66T286 166T296 278Q296 396 256 489T126 670L208 735Q306 648 362 534T419 278Q419 136 363 22T208 -179L126 -114Z" />
<glyph unicode="*" glyph-name="asterisk" horiz-adv-x="600" d="M120 135L217 292L64 360L87 431L249 388L261 566H339L351 388L513 431L536 360L383 292L480 135L416 91L300 233L184 91L120 135Z" />
<glyph unicode="+" glyph-name="plus" horiz-adv-x="600" d="M246 278H70V382H246V566H354V382H530V278H354V94H246V278Z" />
<glyph unicode="," glyph-name="comma" horiz-adv-x="600" d="M182 -131Q312 -86 312 11Q308 10 301 10Q280 10 261 16T226 36T202 68T193 112Q193 159 225 187T305 215Q367 215 398 170T429 43Q429 -53 376 -119T219 -217L182 -131Z" />
<glyph unicode="-" glyph-name="hyphen" horiz-adv-x="600" d="M70 382H530V278H70V382Z" />
<glyph unicode="." glyph-name="period" horiz-adv-x="600" d="M184 105Q184 130 192 151T216 189T252 214T300 223Q326 223 347 214T384 189T407 152T416 105Q416 55 384 22T300 -12Q248 -12 216 21T184 105Z" />
<glyph unicode="/" glyph-name="slash" horiz-adv-x="600" d="M197 -160H74L403 710H526L197 -160Z" />
<glyph unicode="0" glyph-name="zero" horiz-adv-x="600" d="M300 -12Q245 -12 200 9T123 73T74 177T56 320Q56 401 73 462T123 564T200 626T300 647Q355 647 400 627T477 565T526 462T544 320Q544 239 527 177T477 73T400 10T300 -12ZM300 533Q276 533 256 523T220
489T196 423T187 320Q187 258 196 217T220 150T255 113T300 102Q324 102 344 113T380 149T404 216T413 320Q413 382 404 423T380 488T345 523T300 533ZM300 246Q268 246 247 266T225 322Q225 357 246 377T300 398Q332 398 353 378T375 322Q375 287 354 267T300
246Z" />
<glyph unicode="1" glyph-name="one" horiz-adv-x="600" d="M537 119V0H82V119H246V486H115V577Q171 587 210 601T285 635H393V119H537Z" />
<glyph unicode="2" glyph-name="two" horiz-adv-x="600" d="M58 84Q126 141 182 190T278 283T340 364T362 436Q362 483 335 507T258 532Q220 532 189 513T130 467L51 546Q76 571 100 590T152 621T210 640T278 647Q328 647 369 633T439 592T485 528T502 445Q502
405 483 364T432 281T357 198T269 116Q296 119 327 121T384 124H535V0H58V84Z" />
<glyph unicode="3" glyph-name="three" horiz-adv-x="600" d="M110 171Q142 143 181 125T265 107Q317 107 350 126T384 182Q384 203 375 220T344 248T285 266T192 273V377Q286 377 324 400T363 462Q363 495 338 513T269 532Q231 532 199 517T134 476L60 566Q107
604 160 625T276 647Q328 647 371 636T445 602T493 547T510 473Q510 423 478 389T389 332V328Q449 312 490 274T531 173Q531 129 511 95T456 37T375 1T279 -12Q197 -12 138 12T42 78L110 171Z" />
<glyph unicode="4" glyph-name="four" horiz-adv-x="600" d="M341 264V371Q341 401 342 440T346 510H342Q326 483 308 456T273 402L177 264H341ZM558 152H478V0H341V152H35V253L300 635H478V264H558V152Z" />
<glyph unicode="5" glyph-name="five" horiz-adv-x="600" d="M112 170Q144 144 180 126T262 107Q316 107 350 132T385 206Q385 254 353 279T269 304Q253 304 241 303T216 297T191 287T162 272L97 314L114 635H503V511H241L230 392Q252 400 271 403T314 407Q358
407 397 395T467 359T514 298T532 210Q532 157 512 116T457 47T377 3T283 -12Q200 -12 143 13T46 77L112 170Z" />
<glyph unicode="6" glyph-name="six" horiz-adv-x="600" d="M314 98Q333 98 350 104T381 122T403 154T411 201Q411 250 385 271T317 293Q289 293 259 279T200 231Q206 193 217 168T244 127T277 105T314 98ZM459 483Q439 501 409 514T347 528Q318 528 292 518T245
484T211 422T196 328Q230 361 271 379T349 397Q391 397 426 385T488 349T530 288T545 201Q545 151 527 112T477 45T404 3T317 -12Q268 -12 222 6T140 62T82 159T60 303Q60 392 83 457T144 564T232 626T334 647Q402 647 453 625T536 571L459 483Z" />
<glyph unicode="7" glyph-name="seven" horiz-adv-x="600" d="M193 0Q197 79 208 145T241 272T297 390T381 511H62V635H539V545Q479 478 442 420T384 299T354 165T341 0H193V0Z" />
<glyph unicode="8" glyph-name="eight" horiz-adv-x="600" d="M188 179Q188 137 221 114T303 90Q348 90 375 109T403 169Q403 191 392 206T361 233T312 256T250 280Q223 260 206 235T188 179ZM343 370Q391 413 391 463Q391 500 368 522T301 545Q266 545 242 527T217
472Q217 433 252 411T343 370ZM61 162Q61 191 70 214T96 257T134 291T181 318V322Q141 350 115 385T88 472Q88 512 104 544T148 600T217 635T304 647Q352 647 390 635T456 600T497 545T512 473Q512 428 486 393T421 334V330Q446 318 468 303T506 267T531 222T540
164Q540 126 524 94T478 39T402 2T299 -12Q244 -12 200 0T125 36T78 91T61 162Z" />
<glyph unicode="9" glyph-name="nine" horiz-adv-x="600" d="M282 342Q310 342 340 356T399 405Q393 442 382 467T355 508T321 530T284 537Q265 537 248 531T217 513T195 481T187 434Q187 385 213 364T282 342ZM140 152Q160 134 190 121T252 107Q281 107 307 117T354
151T388 213T403 308Q368 275 327 257T250 238Q208 238 172 250T110 286T68 347T53 434Q53 483 71 522T121 590T194 632T281 647Q330 647 376 629T459 573T516 476T538 332Q538 243 515 178T454 71T367 9T265 -12Q197 -12 146 11T62 64L140 152Z" />
<glyph unicode=":" glyph-name="colon" horiz-adv-x="600" d="M184 428Q184 453 192 474T216 512T252 537T300 546Q326 546 347 537T384 512T407 475T416 428Q416 378 384 345T300 311Q248 311 216 344T184 428ZM184 105Q184 130 192 151T216 189T252 214T300
223Q326 223 347 214T384 189T407 152T416 105Q416 55 384 22T300 -12Q248 -12 216 21T184 105Z" />
<glyph unicode=";" glyph-name="semicolon" horiz-adv-x="600" d="M184 428Q184 453 192 474T216 512T252 537T300 546Q326 546 347 537T384 512T407 475T416 428Q416 378 384 345T300 311Q248 311 216 344T184 428ZM182 -131Q312 -86 312 11Q308 10 301 10Q280
10 261 16T226 36T202 68T193 112Q193 159 225 187T305 215Q367 215 398 170T429 43Q429 -53 376 -119T219 -217L182 -131Z" />
<glyph unicode="&lt;" glyph-name="less" horiz-adv-x="600" d="M116 383L502 633V500L237 334V330L502 164V31L116 281V383Z" />
<glyph unicode="=" glyph-name="equal" horiz-adv-x="600" d="M70 498H530V394H70V498ZM70 523H530V419H70V523Z" />
<glyph unicode="&gt;" glyph-name="greater" horiz-adv-x="600" d="M484 281L98 31V164L363 330V334L98 500V633L484 383V281Z" />
<glyph unicode="?" glyph-name="question" horiz-adv-x="600" d="M218 255Q212 288 220 314T244 362T278 400T315 433T344 465T356 500Q356 532 335 547T282 563Q251 563 227 550T180 517L98 592Q134 632 183 657T292 682Q335 682 372 672T437 642T481 591T497
519Q497 486 485 462T455 418T417 381T380 346T353 306T346 255H218ZM186 90Q186 135 214 162T286 190Q329 190 357 163T386 90Q386 45 358 17T286 -12Q243 -12 215 16T186 90Z" />
<glyph unicode="@" glyph-name="at" horiz-adv-x="600" d="M550 100H472L461 151H457Q438 123 408 106T337 88Q310 88 287 99T246 129T220 173T210 228Q210 268 227 297T277 347T356 380T459 400V416Q459 444 451 469T427 513T386 544T328 556Q293 556 258 539T195
485T150 390T132 249Q132 171 150 114T197 18T265 -39T344 -58Q389 -58 418 -48T477 -20L519 -93Q477 -118 435 -132T339 -147Q279 -147 224 -123T125 -50T57 75T31 253Q31 355 55 428T120 550T215 621T331 644Q388 644 429 625T497 573T537 496T550 399V100ZM317
232Q317 209 331 197T370 184Q392 184 409 193T444 220V312Q374 301 346 283T317 232Z" />
<glyph unicode="A" glyph-name="A" horiz-adv-x="600" d="M366 270L351 330Q338 379 325 434T299 540H295Q283 488 270 434T244 330L229 270H366ZM396 155H199L159 0H9L212 652H388L591 0H435L396 155Z" />
<glyph unicode="B" glyph-name="B" horiz-adv-x="600" d="M84 652H288Q339 652 382 645T458 618T508 568T527 490Q527 468 521 446T500 405T465 371T415 349V345Q485 332 521 295T557 192Q557 142 538 106T485 47T406 12T307 0H84V652ZM281 389Q335 389 359 410T383
469Q383 506 359 522T282 538H231V389H281ZM295 114Q413 114 413 203Q413 246 385 265T295 285H231V114H295Z" />
<glyph unicode="C" glyph-name="C" horiz-adv-x="600" d="M55 322Q55 403 79 466T145 574T244 641T366 664Q429 664 477 639T559 581L478 490Q455 511 428 524T366 537Q331 537 302 523T252 481T218 415T206 327Q206 226 252 171T372 115Q407 115 435 131T488
173L569 84Q487 -12 363 -12Q300 -12 244 9T146 73T80 177T55 322Z" />
<glyph unicode="D" glyph-name="D" horiz-adv-x="600" d="M65 652H242Q313 652 371 633T470 575T533 474T556 329Q556 245 534 183T471 81T374 20T250 0H65V652ZM234 119Q272 119 303 130T357 165T392 230T405 329Q405 387 393 426T358 489T304 523T234 533H213V119H234Z" />
<glyph unicode="E" glyph-name="E" horiz-adv-x="600" d="M94 652H524V528H241V397H481V274H241V124H534V0H94V652Z" />
<glyph unicode="F" glyph-name="F" horiz-adv-x="600" d="M108 652H538V528H255V377H496V253H255V0H108V652Z" />
<glyph unicode="G" glyph-name="G" horiz-adv-x="600" d="M44 322Q44 404 67 467T131 574T227 641T345 664Q411 664 457 639T536 581L455 490Q434 511 409 524T345 537Q313 537 286 523T239 481T208 415T196 327Q196 226 234 171T351 115Q370 115 387 120T415
135V247H320V367H547V67Q514 36 460 12T343 -12Q280 -12 226 9T131 73T67 177T44 322Z" />
<glyph unicode="H" glyph-name="H" horiz-adv-x="600" d="M64 652H211V401H389V652H536V0H389V272H211V0H64V652Z" />
<glyph unicode="I" glyph-name="I" horiz-adv-x="600" d="M74 124H226V528H74V652H526V528H374V124H526V0H74V124Z" />
<glyph unicode="J" glyph-name="J" horiz-adv-x="600" d="M144 187Q202 115 268 115Q319 115 344 140T369 234V529H114V652H516V222Q516 174 504 132T462 57T387 7T273 -12Q246 -12 217 -7T160 12T106 45T59 96L144 187Z" />
<glyph unicode="K" glyph-name="K" horiz-adv-x="600" d="M68 652H217V385H220L413 652H575L380 392L594 0H431L293 275L217 175V0H68V652Z" />
<glyph unicode="L" glyph-name="L" horiz-adv-x="600" d="M107 652H254V124H544V0H107V652Z" />
<glyph unicode="M" glyph-name="M" horiz-adv-x="600" d="M65 652H212L278 421L300 331H303L325 421L388 652H535V0H416V213Q416 240 418 279T423 361T429 442T435 508H432L381 329L331 174H266L216 329L167 508H163Q166 482 169 443T175 361T180 280T182 213V0H65V652Z" />
<glyph unicode="N" glyph-name="N" horiz-adv-x="600" d="M66 652H216L354 327L410 184H414Q409 236 401 300T393 421V652H534V0H384L246 325L190 467H186Q191 413 199 351T207 231V0H66V652Z" />
<glyph unicode="O" glyph-name="O" horiz-adv-x="600" d="M300 -12Q242 -12 194 11T111 79T57 186T38 329Q38 409 57 471T110 576T193 641T300 664Q358 664 406 642T489 576T543 471T562 329Q562 249 543 186T490 79T407 12T300 -12ZM300 115Q351 115 381 172T411
329Q411 427 381 482T300 537Q249 537 219 482T189 329Q189 230 219 173T300 115Z" />
<glyph unicode="P" glyph-name="P" horiz-adv-x="600" d="M74 652H312Q365 652 411 642T492 607T547 542T567 442Q567 385 547 343T491 274T410 234T312 221H221V0H74V652ZM303 338Q422 338 422 442Q422 493 392 514T303 535H221V338H303Z" />
<glyph unicode="Q" glyph-name="Q" horiz-adv-x="600" d="M297 537Q245 537 216 482T187 329Q187 230 216 173T297 115Q348 115 377 172T407 329Q407 427 378 482T297 537ZM580 -157Q563 -166 539 -172T484 -178Q436 -178 396 -165T324 -129T267 -74T228 -3Q140
22 88 107T36 329Q36 409 55 471T108 576T190 641T297 664Q355 664 403 642T485 576T538 471T557 329Q557 200 510 116T382 2Q399 -33 432 -46T501 -60Q516 -60 529 -56T554 -47L580 -157Z" />
<glyph unicode="R" glyph-name="R" horiz-adv-x="600" d="M217 352H289Q408 352 408 449Q408 497 378 516T289 535H217V352ZM419 0L294 235H217V0H70V652H301Q353 652 398 642T478 609T533 546T553 449Q553 377 521 331T437 261L584 0H419Z" />
<glyph unicode="S" glyph-name="S" horiz-adv-x="600" d="M135 183Q172 153 215 134T302 115Q353 115 376 132T400 178Q400 193 393 204T373 223T342 239T299 256L215 292Q188 302 163 318T118 355T88 405T76 470Q76 510 93 545T142 607T218 649T315 664Q375 664
431 642T532 578L457 485Q423 510 390 523T315 537Q272 537 249 522T225 478Q225 448 255 433T332 401L411 367Q476 343 513 301T551 190Q551 149 534 113T485 49T406 5T298 -12Q232 -12 168 11T50 82L135 183Z" />
<glyph unicode="T" glyph-name="T" horiz-adv-x="600" d="M226 528H31V652H569V528H374V0H226V528Z" />
<glyph unicode="U" glyph-name="U" horiz-adv-x="600" d="M64 652H211V236Q211 177 233 146T302 115Q349 115 371 146T394 236V652H536V251Q536 123 479 56T302 -12Q182 -12 123 55T64 251V652Z" />
<glyph unicode="V" glyph-name="V" horiz-adv-x="600" d="M15 652H171L249 348Q264 294 275 244T301 139H305Q320 193 332 243T358 348L435 652H585L389 0H212L15 652Z" />
<glyph unicode="W" glyph-name="W" horiz-adv-x="600" d="M4 652H154L175 305Q176 263 177 222T179 139H182Q190 181 199 222T217 305L262 486H351L394 305Q402 265 411 223T428 139H432Q434 181 434 222T437 305L456 652H596L515 0H361L320 205Q314 236 309 268T302
330H299Q296 301 292 269T281 205L242 0H91L4 652Z" />
<glyph unicode="X" glyph-name="X" horiz-adv-x="600" d="M208 335L29 652H194L257 529Q268 506 280 481T307 424H311Q323 455 333 480T355 529L413 652H571L392 328L582 0H418L347 133Q333 159 321 184T295 240H291Q279 210 267 185T243 133L175 0H18L208 335Z" />
<glyph unicode="Y" glyph-name="Y" horiz-adv-x="600" d="M226 220L16 652H174L240 495Q254 457 269 421T299 346H303Q319 385 334 421T364 495L430 652H584L374 220V0H226V220Z" />
<glyph unicode="Z" glyph-name="Z" horiz-adv-x="600" d="M56 89L362 529H85V652H543V563L238 124H547V0H56V89Z" />
<glyph unicode="[" glyph-name="bracketleft" horiz-adv-x="600" d="M201 708H496V630H313V-74H496V-152H201V708Z" />
<glyph unicode="\" glyph-name="backslash" horiz-adv-x="600" d="M74 710H197L526 -160H403L74 710Z" />
<glyph unicode="]" glyph-name="bracketright" horiz-adv-x="600" d="M287 -74V630H105V708H400V-152H105V-74H287Z" />
<glyph unicode="^" glyph-name="asciicircum" horiz-adv-x="600" d="M241 670H359L514 274H393L347 402L302 537H298L253 402L207 274H86L241 670Z" />
<glyph unicode="_" glyph-name="underscore" horiz-adv-x="600" d="M540 -54V-164H60V-54H540Z" />
<glyph unicode="`" glyph-name="grave" horiz-adv-x="600" d="M143 741H293L382 574H275L143 741Z" />
<glyph unicode="a" glyph-name="a" horiz-adv-x="600" d="M61 138Q61 180 79 211T136 265T238 300T388 319Q384 353 359 372T282 391Q246 391 210 379T131 345L79 441Q130 470 188 489T311 508Q415 508 475 453T535 284V0H415L404 56H400Q362 27 317 8T224 -12Q186
-12 156 -1T105 31T73 79T61 138ZM202 149Q202 125 220 114T271 102Q304 102 333 115T388 149V231Q333 228 297 221T240 204T211 179T202 149Z" />
<glyph unicode="b" glyph-name="b" horiz-adv-x="600" d="M72 701H219V529L215 451Q244 478 280 493T353 508Q399 508 436 490T499 440T539 361T553 257Q553 193 535 143T487 59T419 6T338 -12Q303 -12 269 5T203 54H199L187 0H72V701ZM219 141Q240 123 262 116T305
108Q346 108 374 142T402 254Q402 388 311 388Q264 388 219 342V141Z" />
<glyph unicode="c" glyph-name="c" horiz-adv-x="600" d="M67 248Q67 310 90 358T153 440T245 490T354 508Q413 508 460 489T540 441L472 350Q417 389 362 389Q298 389 258 351T218 248Q218 183 256 145T357 107Q396 107 429 121T488 154L548 61Q503 23 449 6T343
-12Q284 -12 234 5T147 56T88 137T67 248Z" />
<glyph unicode="d" glyph-name="d" horiz-adv-x="600" d="M47 248Q47 309 65 357T112 438T180 490T259 508Q302 508 331 494T386 455L381 532V701H528V0H408L397 51H394Q366 24 330 6T256 -12Q209 -12 171 6T105 57T62 139T47 248ZM198 250Q198 176 223 142T294
108Q319 108 340 118T381 154V355Q361 373 341 380T298 388Q257 388 228 354T198 250Z" />
<glyph unicode="e" glyph-name="e" horiz-adv-x="600" d="M55 248Q55 309 76 357T134 438T216 490T313 508Q370 508 414 490T487 440T531 365T546 270Q546 250 544 232T540 205H206Q214 149 254 125T350 100Q384 100 414 108T478 134L526 46Q484 19 432 4T330
-12Q272 -12 222 5T135 56T77 138T55 248ZM413 302Q413 344 390 370T316 396Q276 396 245 373T204 302H413Z" />
<glyph unicode="f" glyph-name="f" horiz-adv-x="600" d="M557 578Q508 597 453 597Q405 597 383 576T360 510V496H531V381H360V0H213V381H82V490L213 496V509Q213 552 226 589T266 653T335 697T435 713Q478 713 515 705T585 686L557 578Z" />
<glyph unicode="g" glyph-name="g" horiz-adv-x="600" d="M172 -62Q172 -90 205 -104T298 -119Q358 -119 395 -102T432 -58Q432 -34 410 -27T345 -19H283Q256 -19 239 -18T207 -13Q188 -25 180 -36T172 -62ZM52 -84Q52 -23 129 15V19Q109 32 94 52T79 104Q79 129
95 154T138 197V201Q111 219 92 251T73 328Q73 373 90 406T137 462T204 496T285 508Q331 508 367 496H568V389H467Q476 378 483 361T490 323Q490 280 474 249T431 198T366 167T285 157Q253 157 217 167Q206 159 201 151T195 131Q195 111 215 102T279 93H371Q469
93 520 64T572 -32Q572 -71 551 -104T492 -160T399 -197T277 -211Q229 -211 188 -204T116 -181T69 -141T52 -84ZM285 246Q316 246 338 266T361 328Q361 368 339 388T285 409Q254 409 233 389T211 328Q211 287 232 267T285 246Z" />
<glyph unicode="h" glyph-name="h" horiz-adv-x="600" d="M72 701H219V529L211 434Q226 448 243 461T281 485T326 502T379 508Q463 508 501 454T540 306V0H393V287Q393 337 377 360T320 383Q290 383 268 370T219 331V0H72V701Z" />
<glyph unicode="i" glyph-name="i" horiz-adv-x="600" d="M79 496H425V0H278V381H79V496ZM345 569Q302 569 275 593T247 658Q247 699 274 724T345 750Q388 750 415 725T443 658Q443 617 416 593T345 569Z" />
<glyph unicode="j" glyph-name="j" horiz-adv-x="600" d="M79 496H425V30Q425 -15 415 -56T378 -128T307 -177T195 -196Q149 -196 112 -187T42 -162L85 -57Q115 -71 139 -76T186 -81Q239 -81 258 -56T278 24V381H79V496ZM345 569Q302 569 275 593T247 658Q247
699 274 724T345 750Q388 750 415 725T443 658Q443 617 416 593T345 569Z" />
<glyph unicode="k" glyph-name="k" horiz-adv-x="600" d="M76 701H223V296H227L409 496H570L382 292L585 0H426L296 202L223 125V0H76V701Z" />
<glyph unicode="l" glyph-name="l" horiz-adv-x="600" d="M62 701H353V188Q353 165 359 150T377 125T403 111T433 107Q450 107 469 110T511 123L544 15Q524 9 507 4T473 -4T437 -10T395 -12Q301 -12 254 43T206 194V585H62V701Z" />
<glyph unicode="m" glyph-name="m" horiz-adv-x="600" d="M36 496H146L157 434H161Q175 465 199 486T267 508Q300 508 322 488T354 427Q368 461 394 484T463 508Q515 508 544 466T573 348V0H435V337Q435 383 407 383Q380 383 361 335V0H248V337Q248 383 219 383Q205
383 195 371T174 335V0H36V496Z" />
<glyph unicode="n" glyph-name="n" horiz-adv-x="600" d="M72 496H192L203 430H207Q239 462 280 485T378 508Q462 508 501 454T540 306V0H393V287Q393 337 377 360T320 383Q290 383 268 370T219 331V0H72V496Z" />
<glyph unicode="o" glyph-name="o" horiz-adv-x="600" d="M47 248Q47 310 68 358T124 440T205 490T300 508Q349 508 394 491T475 440T532 359T553 248Q553 186 532 138T476 56T395 6T300 -12Q251 -12 206 5T125 56T68 137T47 248ZM198 248Q198 183 223 145T300
107Q351 107 376 145T402 248Q402 313 377 351T300 389Q249 389 224 351T198 248Z" />
<glyph unicode="p" glyph-name="p" horiz-adv-x="600" d="M219 -39V-184H72V496H192L203 446H206Q236 473 275 490T354 508Q400 508 437 490T500 439T539 360T553 256Q553 192 535 143T487 59T419 6T338 -12Q270 -12 214 42L219 -39ZM219 141Q240 123 262 116T304
108Q346 108 374 142T402 254Q402 388 311 388Q264 388 219 342V141Z" />
<glyph unicode="q" glyph-name="q" horiz-adv-x="600" d="M47 248Q47 309 65 357T112 438T180 490T259 508Q301 508 333 493T397 445H401L413 496H528V-184H381V-31L387 45Q361 20 326 4T256 -12Q209 -12 171 6T105 57T62 139T47 248ZM198 250Q198 176 223 142T294
108Q319 108 340 118T381 154V355Q361 373 341 380T298 388Q257 388 228 354T198 250Z" />
<glyph unicode="r" glyph-name="r" horiz-adv-x="600" d="M116 496H236L248 388H251Q288 449 340 478T452 508Q485 508 505 503T548 488L518 365Q495 372 477 375T430 379Q384 379 340 352T263 258V0H116V496Z" />
<glyph unicode="s" glyph-name="s" horiz-adv-x="600" d="M119 156Q162 129 205 113T299 97Q350 97 372 108T394 139Q394 162 358 176T261 208Q228 217 197 229T140 259T100 300T84 353Q84 387 100 416T145 465T217 496T313 508Q379 508 433 487T527 440L461 352Q427
372 391 385T316 399Q269 399 250 389T230 360Q230 349 240 340T267 324T307 311T357 297Q394 287 427 275T485 245T525 204T540 148Q540 114 524 85T478 35T402 1T296 -12Q229 -12 165 10T53 64L119 156Z" />
<glyph unicode="t" glyph-name="t" horiz-adv-x="600" d="M174 381H49V490L181 496L200 628H321V496H531V381H321V207Q321 150 346 127T425 103Q454 103 478 108T524 121L550 15Q517 5 477 -3T388 -12Q329 -12 288 4T222 48T185 117T174 206V381Z" />
<glyph unicode="u" glyph-name="u" horiz-adv-x="600" d="M525 0H405L394 71H390Q357 33 317 11T223 -12Q138 -12 100 42T62 190V496H209V209Q209 159 224 136T281 113Q309 113 330 125T378 170V496H525V0Z" />
<glyph unicode="v" glyph-name="v" horiz-adv-x="600" d="M31 496H179L257 262Q269 224 280 186T302 109H306Q317 148 327 186T350 262L428 496H569L387 0H218L31 496Z" />
<glyph unicode="w" glyph-name="w" horiz-adv-x="600" d="M4 496H148L178 266Q183 229 186 193T195 119H198Q203 157 208 194T221 266L252 430H355L388 266Q395 229 401 193T412 119H416Q421 157 424 193T432 266L462 496H596L519 0H349L321 165Q316 200 312 235T302
311H298Q295 284 292 250T280 165L253 0H86L4 496Z" />
<glyph unicode="x" glyph-name="x" horiz-adv-x="600" d="M209 258L48 496H206L257 416Q268 395 282 374T309 331H313Q323 352 333 374T354 416L398 496H552L390 241L562 0H404L347 82Q333 103 319 125T290 168H286Q275 147 263 126T240 82L191 0H37L209 258Z" />
<glyph unicode="y" glyph-name="y" horiz-adv-x="600" d="M93 -72Q112 -78 132 -78Q175 -78 199 -60T236 -13L246 13L31 496H177L260 283Q274 248 286 211T310 134H314Q324 171 336 208T359 283L432 496H571L375 -5Q357 -52 336 -87T288 -146T226 -182T143 -194Q121
-194 102 -192T67 -184L93 -72V-72Z" />
<glyph unicode="z" glyph-name="z" horiz-adv-x="600" d="M70 79L330 381H102V496H533V418L273 115H541V0H70V79Z" />
<glyph unicode="{" glyph-name="braceleft" horiz-adv-x="600" d="M233 -10Q233 17 234 38T238 78T241 117T243 161Q243 174 237 187T215 210T173 227T106 235V321Q146 322 172 328T215 345T237 369T243 395Q243 418 242 438T238 477T235 518T233 566Q233 647
278 677T419 708H496V630H455Q424 630 404 627T373 616T358 595T353 560Q353 520 355 481T358 397Q358 340 335 315T258 280V276Q312 267 335 242T358 159Q358 113 356 75T353 -4Q353 -25 357 -38T373 -60T404 -71T455 -74H496V-152H419Q323 -152 278 -122T233
-10Z" />
<glyph unicode="|" glyph-name="bar" horiz-adv-x="600" d="M235 750H365V-250H235V750Z" />
<glyph unicode="}" glyph-name="braceright" horiz-adv-x="600" d="M146 -74Q177 -74 196 -71T227 -60T242 -39T247 -4Q247 37 245 75T243 159Q243 216 266 241T343 276V280Q289 289 266 314T243 397Q243 442 245 481T247 560Q247 581 243 594T227 616T197 627T146
630H105V708H182Q278 708 323 678T368 566Q368 540 367 519T363 478T359 438T357 395Q357 382 363 369T385 346T427 329T495 321V235Q454 234 428 228T385 211T363 187T357 161Q357 137 358 118T362 79T366 38T368 -10Q368 -91 323 -121T182 -152H105V-74H146Z"
/>
<glyph unicode="~" glyph-name="asciitilde" horiz-adv-x="600" d="M52 275Q84 353 126 386T215 420Q246 420 269 408T311 382T348 356T387 344Q408 344 427 364T460 426L548 385Q516 307 474 274T385 240Q354 240 331 252T289 278T252 304T213 316Q193 316 174
296T140 234L52 275Z" />
<glyph unicode="&#xa0;" glyph-name="uni00A0" horiz-adv-x="600" />
<glyph unicode="&#xa1;" glyph-name="exclamdown" horiz-adv-x="600" d="M368 -41L373 -174H227L232 -41L252 241H348L368 -41ZM400 406Q400 361 372 334T300 306Q257 306 229 333T200 406Q200 451 228 479T300 508Q343 508 371 480T400 406Z" />
<glyph unicode="&#xa2;" glyph-name="cent" horiz-adv-x="600" d="M311 432Q275 416 257 384T239 307Q239 262 257 230T311 182V432ZM523 113Q494 88 460 74T392 54V-41H311V54Q262 60 223 80T155 132T112 209T96 307Q96 360 112 403T157 477T225 529T311 558V655H392V562Q431
558 462 544T516 506L449 416Q419 440 392 443V171Q413 175 431 184T464 206L523 113Z" />
<glyph unicode="&#xa3;" glyph-name="sterling" horiz-adv-x="600" d="M550 124V0H67V91Q119 111 152 150T185 244Q185 257 182 271H70V357L154 362Q146 382 141 402T135 442Q135 489 152 527T199 591T271 632T363 647Q425 647 469 626T549 566L470 486Q450 507
428 517T377 528Q329 528 302 505T274 434Q274 416 278 398T287 362H456V271H310Q311 264 311 257T312 243Q312 207 300 181T258 128V124H550Z" />
<glyph unicode="&#xa4;" glyph-name="currency" horiz-adv-x="600" d="M36 137L117 219Q83 265 83 330Q83 362 91 389T116 439L36 521L109 595L198 505Q246 530 300 530Q352 530 402 505L491 595L564 521L483 439Q517 394 517 330Q517 297 508 270T482 219L564
137L491 63L401 154Q378 142 352 136T300 130Q245 130 199 154L109 63L36 137ZM214 330Q214 285 239 259T300 232Q336 232 361 258T386 330Q386 375 361 401T300 428Q264 428 239 402T214 330Z" />
<glyph unicode="&#xa5;" glyph-name="yen" horiz-adv-x="600" d="M182 635L243 502Q257 469 271 436T300 371H304Q318 404 332 437T361 502L422 635H569L406 342H543V272H373V217H543V147H373V0H226V147H57V217H226V272H57V342H194L31 635H182Z" />
<glyph unicode="&#xa6;" glyph-name="brokenbar" horiz-adv-x="600" d="M235 750H365V312H235V750ZM365 204V-250H235V204H365Z" />
<glyph unicode="&#xa7;" glyph-name="section" horiz-adv-x="600" d="M195 337Q195 313 211 297T252 267T309 241T369 212Q405 234 405 272Q405 296 389 312T348 342T293 368T232 395Q195 373 195 337ZM416 533Q393 553 365 567T310 581Q256 581 256 542Q256 524
276 511T326 484T392 454T458 416T509 361T529 284Q529 240 508 208T445 151Q456 135 462 116T468 74Q468 40 456 11T419 -39T359 -72T276 -84Q221 -84 168 -64T81 0L165 75Q216 24 276 24Q307 24 321 36T336 67Q336 86 317 100T268 127T204 155T140 192T91 247T71
326Q71 364 93 397T153 454Q139 471 132 491T124 537Q124 605 170 647T302 690Q360 690 406 670T484 625L416 533Z" />
<glyph unicode="&#xa8;" glyph-name="dieresis" horiz-adv-x="600" d="M191 571Q156 571 134 593T112 650Q112 683 134 705T191 728Q226 728 247 706T269 650Q269 616 248 594T191 571ZM409 571Q374 571 353 593T331 650Q331 683 352 705T409 728Q444 728 466
706T488 650Q488 616 466 594T409 571Z" />
<glyph unicode="&#xa9;" glyph-name="copyright" horiz-adv-x="600" d="M19 325Q19 403 41 464T102 567T192 632T300 655Q357 655 408 633T497 568T558 464T581 325Q581 247 559 186T498 81T408 14T300 -9Q243 -9 192 14T103 80T42 185T19 325ZM83 325Q83 263
98 213T142 127T211 72T300 52Q349 52 389 71T457 127T501 213T517 325Q517 386 502 436T458 521T389 576T300 595Q251 595 211 576T143 522T99 436T83 325ZM139 324Q139 368 153 403T191 464T246 502T312 516Q351 516 377 502T424 467L369 406Q358 417 347 423T321
430Q284 430 265 400T245 324Q245 273 264 243T316 213Q335 213 348 219T376 237L423 169Q400 150 373 139T312 127Q274 127 243 141T188 180T152 242T139 324Z" />
<glyph unicode="&#xaa;" glyph-name="ordfeminine" horiz-adv-x="600" d="M154 351Q154 404 200 433T349 472Q346 515 293 515Q273 515 250 508T202 486L165 553Q198 573 236 585T314 597Q379 597 416 561T453 446V260H368L361 293H359Q337 275 312 264T259 252Q211
252 183 281T154 351ZM254 360Q254 346 264 339T292 331Q308 331 322 338T349 357V410Q295 403 275 390T254 360Z" />
<glyph unicode="&#xab;" glyph-name="guillemotleft" horiz-adv-x="600" d="M43 179V325L214 479L276 424L149 252L276 80L214 25L43 179ZM308 179V325L479 479L541 424L414 252L541 80L479 25L308 179Z" />
<glyph unicode="&#xac;" glyph-name="logicalnot" horiz-adv-x="600" d="M70 382H530V94H422V278H70V382Z" />
<glyph unicode="&#xad;" glyph-name="uni00AD" horiz-adv-x="600" d="M70 382H530V278H70V382Z" />
<glyph unicode="&#xae;" glyph-name="registered" horiz-adv-x="600" d="M299 311Q258 311 222 326T159 368T117 432T101 513Q101 557 116 594T159 658T222 700T299 715Q340 715 376 700T439 658T481 594T497 513Q497 469 482 432T439 368T376 326T299 311ZM299
360Q330 360 356 371T402 402T432 450T443 513Q443 548 433 576T403 624T357 655T299 666Q267 666 241 655T196 624T166 576T155 513Q155 478 165 450T195 402T241 371T299 360ZM218 613H307Q342 613 365 597T388 547Q388 530 380 516T353 493L395 416H335L305
476H276V416H218V613ZM296 516Q312 516 319 524T327 544Q327 555 320 562T297 570H276V516H296Z" />
<glyph unicode="&#xaf;" glyph-name="overscore" horiz-adv-x="600" d="M162 685H438V592H162V685Z" />
<glyph unicode="&#xb0;" glyph-name="degree" horiz-adv-x="600" d="M301 398Q271 398 245 408T199 438T168 484T156 542Q156 573 167 599T198 645T244 675T301 686Q331 686 357 676T403 646T434 600T445 542Q445 510 434 484T404 439T358 409T301 398ZM301 468Q331
468 349 488T368 542Q368 574 350 594T301 615Q271 615 253 595T234 542Q234 509 252 489T301 468Z" />
<glyph unicode="&#xb1;" glyph-name="plusminus" horiz-adv-x="600" d="M246 294H70V398H246V566H354V398H530V294H354V158H246V294ZM70 104H530V0H70V104Z" />
<glyph unicode="&#xb2;" glyph-name="two.sups" horiz-adv-x="600" d="M173 495Q204 515 230 535T276 573T307 608T319 637Q319 656 308 667T275 678Q246 678 220 643L158 699Q187 728 219 746T292 764Q352 764 387 735T422 655Q422 620 397 588T341 527H433V440H173V495Z"
/>
<glyph unicode="&#xb3;" glyph-name="three.sups" horiz-adv-x="600" d="M206 536Q222 525 244 516T288 507Q305 507 317 514T330 536Q330 553 313 562T257 571V626Q286 626 302 633T318 658Q318 670 308 677T279 685Q262 685 245 677T213 660L171 722Q194 740
228 752T303 764Q328 764 349 758T387 740T412 712T422 675Q422 648 410 632T368 604Q403 594 418 575T434 528Q434 506 424 488T395 456T353 436T301 428Q270 428 235 436T165 470L206 536Z" />
<glyph unicode="&#xb4;" glyph-name="acute" horiz-adv-x="600" d="M325 574H218L307 741H457L325 574Z" />
<glyph unicode="&#xb5;" glyph-name="uni00B5" horiz-adv-x="600" d="M62 496H209V209Q209 155 226 134T278 113Q307 113 331 130T378 190V496H526Q524 452 523 404T520 310T517 221T516 148Q516 125 526 116T551 107Q556 107 559 107T569 109L587 0Q574 -5 556
-8T513 -12Q464 -12 436 12T394 82H390Q370 38 339 16T271 -7Q251 -7 233 -3T200 18Q201 -42 203 -91T211 -196H62V496Z" />
<glyph unicode="&#xb6;" glyph-name="paragraph" horiz-adv-x="600" d="M380 652H526V-80H380V652ZM328 197H288Q239 197 196 211T119 255T67 328T48 429Q48 492 67 534T118 603T194 641T286 652H328V197Z" />
<glyph unicode="&#xb7;" glyph-name="middot" horiz-adv-x="600" d="M184 353Q184 378 192 399T216 437T252 462T300 471Q326 471 347 462T384 437T407 400T416 353Q416 303 384 270T300 236Q248 236 216 269T184 353Z" />
<glyph unicode="&#xb8;" glyph-name="cedilla" horiz-adv-x="600" d="M263 4H349L329 -43Q355 -51 371 -68T387 -117Q387 -143 373 -161T334 -193T278 -212T210 -221L199 -162Q235 -158 258 -148T282 -118Q282 -105 270 -95T223 -76L263 4Z" />
<glyph unicode="&#xb9;" glyph-name="one.sups" horiz-adv-x="600" d="M277 652H196V716Q215 719 229 722T255 729T278 738T301 752H384V440H277V652Z" />
<glyph unicode="&#xba;" glyph-name="ordmasculine" horiz-adv-x="600" d="M133 424Q133 465 146 497T183 551T237 585T300 597Q333 597 363 586T416 552T453 497T467 424Q467 383 454 351T417 297T363 264T300 252Q267 252 237 263T184 297T147 351T133 424ZM239
424Q239 383 253 359T300 334Q332 334 346 358T361 424Q361 466 347 490T300 514Q268 514 254 490T239 424Z" />
<glyph unicode="&#xbb;" glyph-name="guillemotright" horiz-adv-x="600" d="M187 252L60 424L122 479L293 325V179L122 25L60 80L187 252ZM452 252L325 424L387 479L558 325V179L387 25L325 80L452 252Z" />
<glyph unicode="&#xbc;" glyph-name="onequarter" horiz-adv-x="600" d="M151 536H70V600Q89 603 103 606T129 613T152 622T175 636H258V324H151V536ZM17 101L203 274L254 227L92 28L17 101ZM583 551L397 377L346 425L508 624L583 551ZM448 127V149L454 248H450L416
186L383 127H448ZM593 61H542V0H448V61H288V112L408 312H542V127H593V61Z" />
<glyph unicode="&#xbd;" glyph-name="onehalf" horiz-adv-x="600" d="M151 536H70V600Q89 603 103 606T129 613T152 622T175 636H258V324H151V536ZM17 101L203 274L254 227L92 28L17 101ZM583 551L397 377L346 425L508 624L583 551ZM299 55Q330 75 356 95T402
133T433 168T445 197Q445 216 434 227T401 238Q372 238 346 203L284 259Q313 288 345 306T418 324Q478 324 513 295T548 215Q548 180 523 148T467 87H559V0H299V55Z" />
<glyph unicode="&#xbe;" glyph-name="threequarters" horiz-adv-x="600" d="M79 420Q95 409 117 400T161 391Q178 391 190 398T203 420Q203 437 186 446T130 455V510Q159 510 175 517T191 542Q191 554 181 561T152 569Q135 569 118 561T86 544L44 606Q67 624 101
636T176 648Q201 648 222 642T260 624T285 596T295 559Q295 532 283 516T241 488Q276 478 291 459T307 412Q307 390 297 372T268 340T226 320T174 312Q143 312 108 320T38 354L79 420ZM24 101L210 274L261 227L99 28L24 101ZM590 551L404 377L353 425L515 624L590
551ZM449 127V149L455 248H451L417 186L384 127H449ZM594 61H543V0H449V61H289V112L409 312H543V127H594V61Z" />
<glyph unicode="&#xbf;" glyph-name="questiondown" horiz-adv-x="600" d="M383 241Q388 207 380 181T357 134T322 96T285 63T256 31T244 -4Q244 -35 265 -51T318 -67Q350 -67 374 -54T421 -21L502 -95Q466 -136 417 -161T308 -186Q265 -186 228 -176T163 -146T119
-95T103 -23Q103 10 115 34T145 78T183 115T220 150T247 190T254 241H383ZM414 406Q414 361 386 334T314 306Q271 306 243 333T215 406Q215 451 243 479T314 508Q358 508 386 480T414 406Z" />
<glyph unicode="&#xc0;" glyph-name="Agrave" horiz-adv-x="600" d="M366 270L351 330Q338 379 325 434T299 540H295Q283 488 270 434T244 330L229 270H366ZM396 155H199L159 0H9L212 652H388L591 0H435L396 155ZM138 822H294L375 702H258L138 822Z" />
<glyph unicode="&#xc1;" glyph-name="Aacute" horiz-adv-x="600" d="M366 270L351 330Q338 379 325 434T299 540H295Q283 488 270 434T244 330L229 270H366ZM396 155H199L159 0H9L212 652H388L591 0H435L396 155ZM342 702H225L306 822H462L342 702Z" />
<glyph unicode="&#xc2;" glyph-name="Acircumflex" horiz-adv-x="600" d="M366 270L351 330Q338 379 325 434T299 540H295Q283 488 270 434T244 330L229 270H366ZM396 155H199L159 0H9L212 652H388L591 0H435L396 155ZM132 702L228 822H372L468 702H355L302 763H298L245
702H132Z" />
<glyph unicode="&#xc3;" glyph-name="Atilde" horiz-adv-x="600" d="M366 270L351 330Q338 379 325 434T299 540H295Q283 488 270 434T244 330L229 270H366ZM396 155H199L159 0H9L212 652H388L591 0H435L396 155ZM363 703Q343 703 326 710T295 725T268 741T243
748Q230 748 220 738T205 703H130Q138 772 168 805T237 839Q257 839 274 832T305 817T332 801T357 794Q370 794 380 804T395 839H470Q462 770 432 737T363 703Z" />
<glyph unicode="&#xc4;" glyph-name="Adieresis" horiz-adv-x="600" d="M366 270L351 330Q338 379 325 434T299 540H295Q283 488 270 434T244 330L229 270H366ZM396 155H199L159 0H9L212 652H388L591 0H435L396 155ZM201 700Q170 700 151 720T131 770Q131 800
150 820T201 840Q232 840 251 820T271 770Q271 740 252 720T201 700ZM399 700Q368 700 349 720T329 770Q329 800 348 820T399 840Q430 840 449 820T469 770Q469 740 450 720T399 700Z" />
<glyph unicode="&#xc5;" glyph-name="Aring" horiz-adv-x="600" d="M366 270L351 330Q338 379 325 434T299 540H295Q283 488 270 434T244 330L229 270H366ZM396 155H199L159 0H9L212 652H388L591 0H435L396 155ZM300 697Q249 697 218 723T187 795Q187 840 218
866T300 893Q351 893 382 867T413 795Q413 750 382 724T300 697ZM300 752Q317 752 328 763T340 795Q340 815 329 826T300 838Q283 838 271 827T259 795Q259 775 271 764T300 752Z" />
<glyph unicode="&#xc6;" glyph-name="AE" horiz-adv-x="600" d="M311 263V541H308Q295 492 281 446T255 356L227 263H311ZM595 124V0H311V149H193L148 0H-3L206 652H586V528H441V399H559V275H441V124H595Z" />
<glyph unicode="&#xc7;" glyph-name="Ccedilla" horiz-adv-x="600" d="M55 322Q55 403 79 466T145 574T244 641T366 664Q429 664 477 639T559 581L478 490Q455 511 428 524T366 537Q331 537 302 523T252 481T218 415T206 327Q206 226 252 171T372 115Q407 115
435 131T488 173L569 84Q487 -12 363 -12Q300 -12 244 9T146 73T80 177T55 322ZM308 4H394L374 -43Q399 -51 415 -68T432 -117Q432 -143 418 -161T379 -193T322 -212T255 -221L244 -162Q279 -158 302 -148T326 -118Q326 -105 314 -95T268 -76L308 4Z" />
<glyph unicode="&#xc8;" glyph-name="Egrave" horiz-adv-x="600" d="M94 652H524V528H241V397H481V274H241V124H534V0H94V652ZM160 822H316L397 702H280L160 822Z" />
<glyph unicode="&#xc9;" glyph-name="Eacute" horiz-adv-x="600" d="M94 652H524V528H241V397H481V274H241V124H534V0H94V652ZM364 702H247L328 822H484L364 702Z" />
<glyph unicode="&#xca;" glyph-name="Ecircumflex" horiz-adv-x="600" d="M94 652H524V528H241V397H481V274H241V124H534V0H94V652ZM154 702L250 822H394L490 702H377L324 763H320L267 702H154Z" />
<glyph unicode="&#xcb;" glyph-name="Edieresis" horiz-adv-x="600" d="M94 652H524V528H241V397H481V274H241V124H534V0H94V652ZM223 700Q192 700 173 720T153 770Q153 800 172 820T223 840Q254 840 273 820T293 770Q293 740 274 720T223 700ZM421 700Q390 700
371 720T351 770Q351 800 370 820T421 840Q452 840 471 820T491 770Q491 740 472 720T421 700Z" />
<glyph unicode="&#xcc;" glyph-name="Igrave" horiz-adv-x="600" d="M74 124H226V528H74V652H526V528H374V124H526V0H74V124ZM138 822H294L375 702H258L138 822Z" />
<glyph unicode="&#xcd;" glyph-name="Iacute" horiz-adv-x="600" d="M74 124H226V528H74V652H526V528H374V124H526V0H74V124ZM342 702H225L306 822H462L342 702Z" />
<glyph unicode="&#xce;" glyph-name="Icircumflex" horiz-adv-x="600" d="M74 124H226V528H74V652H526V528H374V124H526V0H74V124ZM132 702L228 822H372L468 702H355L302 763H298L245 702H132Z" />
<glyph unicode="&#xcf;" glyph-name="Idieresis" horiz-adv-x="600" d="M74 124H226V528H74V652H526V528H374V124H526V0H74V124ZM201 700Q170 700 151 720T131 770Q131 800 150 820T201 840Q232 840 251 820T271 770Q271 740 252 720T201 700ZM399 700Q368 700
349 720T329 770Q329 800 348 820T399 840Q430 840 449 820T469 770Q469 740 450 720T399 700Z" />
<glyph unicode="&#xd0;" glyph-name="Eth" horiz-adv-x="600" d="M71 301H2V367L71 372V652H249Q319 652 377 633T476 575T539 474T562 329Q562 245 540 183T477 81T381 20T257 0H71V301ZM240 119Q278 119 309 130T363 165T398 230T411 329Q411 387 399 426T364
489T310 523T240 533H219V372H326V301H219V119H240Z" />
<glyph unicode="&#xd1;" glyph-name="Ntilde" horiz-adv-x="600" d="M66 652H216L354 327L410 184H414Q409 236 401 300T393 421V652H534V0H384L246 325L190 467H186Q191 413 199 351T207 231V0H66V652ZM369 703Q349 703 332 710T301 725T274 741T249 748Q236
748 226 738T211 703H136Q144 772 174 805T243 839Q263 839 280 832T311 817T338 801T363 794Q376 794 386 804T401 839H476Q468 770 438 737T369 703Z" />
<glyph unicode="&#xd2;" glyph-name="Ograve" horiz-adv-x="600" d="M300 -12Q242 -12 194 11T111 79T57 186T38 329Q38 409 57 471T110 576T193 641T300 664Q358 664 406 642T489 576T543 471T562 329Q562 249 543 186T490 79T407 12T300 -12ZM300 115Q351 115
381 172T411 329Q411 427 381 482T300 537Q249 537 219 482T189 329Q189 230 219 173T300 115ZM138 822H294L375 702H258L138 822Z" />
<glyph unicode="&#xd3;" glyph-name="Oacute" horiz-adv-x="600" d="M300 -12Q242 -12 194 11T111 79T57 186T38 329Q38 409 57 471T110 576T193 641T300 664Q358 664 406 642T489 576T543 471T562 329Q562 249 543 186T490 79T407 12T300 -12ZM300 115Q351 115
381 172T411 329Q411 427 381 482T300 537Q249 537 219 482T189 329Q189 230 219 173T300 115ZM342 702H225L306 822H462L342 702Z" />
<glyph unicode="&#xd4;" glyph-name="Ocircumflex" horiz-adv-x="600" d="M300 -12Q242 -12 194 11T111 79T57 186T38 329Q38 409 57 471T110 576T193 641T300 664Q358 664 406 642T489 576T543 471T562 329Q562 249 543 186T490 79T407 12T300 -12ZM300 115Q351
115 381 172T411 329Q411 427 381 482T300 537Q249 537 219 482T189 329Q189 230 219 173T300 115ZM132 702L228 822H372L468 702H355L302 763H298L245 702H132Z" />
<glyph unicode="&#xd5;" glyph-name="Otilde" horiz-adv-x="600" d="M300 -12Q242 -12 194 11T111 79T57 186T38 329Q38 409 57 471T110 576T193 641T300 664Q358 664 406 642T489 576T543 471T562 329Q562 249 543 186T490 79T407 12T300 -12ZM300 115Q351 115
381 172T411 329Q411 427 381 482T300 537Q249 537 219 482T189 329Q189 230 219 173T300 115ZM363 703Q343 703 326 710T295 725T268 741T243 748Q230 748 220 738T205 703H130Q138 772 168 805T237 839Q257 839 274 832T305 817T332 801T357 794Q370 794 380
804T395 839H470Q462 770 432 737T363 703Z" />
<glyph unicode="&#xd6;" glyph-name="Odieresis" horiz-adv-x="600" d="M300 -12Q242 -12 194 11T111 79T57 186T38 329Q38 409 57 471T110 576T193 641T300 664Q358 664 406 642T489 576T543 471T562 329Q562 249 543 186T490 79T407 12T300 -12ZM300 115Q351
115 381 172T411 329Q411 427 381 482T300 537Q249 537 219 482T189 329Q189 230 219 173T300 115ZM201 700Q170 700 151 720T131 770Q131 800 150 820T201 840Q232 840 251 820T271 770Q271 740 252 720T201 700ZM399 700Q368 700 349 720T329 770Q329 800 348
820T399 840Q430 840 449 820T469 770Q469 740 450 720T399 700Z" />
<glyph unicode="&#xd7;" glyph-name="multiply" horiz-adv-x="600" d="M84 186L226 329L84 473L157 547L300 403L443 547L516 473L374 329L516 186L443 112L300 256L157 112L84 186Z" />
<glyph unicode="&#xd8;" glyph-name="Oslash" horiz-adv-x="600" d="M237 146Q263 115 300 115Q351 115 381 172T411 329Q411 346 410 362T407 393L237 146ZM369 501Q341 537 300 537Q249 537 219 482T189 329Q189 285 195 249L369 501ZM511 544Q536 502 549 449T562
329Q562 249 543 186T490 79T407 12T300 -12Q218 -12 159 32L108 -41L30 9L94 102Q67 145 53 202T38 329Q38 409 57 471T110 576T193 641T300 664Q385 664 448 616L501 693L579 643L511 544Z" />
<glyph unicode="&#xd9;" glyph-name="Ugrave" horiz-adv-x="600" d="M64 652H211V236Q211 177 233 146T302 115Q349 115 371 146T394 236V652H536V251Q536 123 479 56T302 -12Q182 -12 123 55T64 251V652ZM138 822H294L375 702H258L138 822Z" />
<glyph unicode="&#xda;" glyph-name="Uacute" horiz-adv-x="600" d="M64 652H211V236Q211 177 233 146T302 115Q349 115 371 146T394 236V652H536V251Q536 123 479 56T302 -12Q182 -12 123 55T64 251V652ZM342 702H225L306 822H462L342 702Z" />
<glyph unicode="&#xdb;" glyph-name="Ucircumflex" horiz-adv-x="600" d="M64 652H211V236Q211 177 233 146T302 115Q349 115 371 146T394 236V652H536V251Q536 123 479 56T302 -12Q182 -12 123 55T64 251V652ZM132 702L228 822H372L468 702H355L302 763H298L245
702H132Z" />
<glyph unicode="&#xdc;" glyph-name="Udieresis" horiz-adv-x="600" d="M64 652H211V236Q211 177 233 146T302 115Q349 115 371 146T394 236V652H536V251Q536 123 479 56T302 -12Q182 -12 123 55T64 251V652ZM201 700Q170 700 151 720T131 770Q131 800 150 820T201
840Q232 840 251 820T271 770Q271 740 252 720T201 700ZM399 700Q368 700 349 720T329 770Q329 800 348 820T399 840Q430 840 449 820T469 770Q469 740 450 720T399 700Z" />
<glyph unicode="&#xdd;" glyph-name="Yacute" horiz-adv-x="600" d="M226 220L16 652H174L240 495Q254 457 269 421T299 346H303Q319 385 334 421T364 495L430 652H584L374 220V0H226V220ZM342 702H225L306 822H462L342 702Z" />
<glyph unicode="&#xde;" glyph-name="Thorn" horiz-adv-x="600" d="M73 652H220V553H311Q364 553 410 543T491 508T546 443T566 344Q566 286 546 245T490 176T409 136T311 123H220V0H73V652ZM302 240Q421 240 421 344Q421 395 391 415T302 436H220V240H302Z" />
<glyph unicode="&#xdf;" glyph-name="germandbls" horiz-adv-x="600" d="M61 495Q61 541 75 581T117 650T188 696T288 713Q336 713 372 699T431 661T465 607T477 544Q477 508 468 484T447 440T426 404T416 368Q416 351 427 339T456 315T493 290T531 258T559 214T571
152Q571 118 560 88T527 36T473 1T397 -12Q355 -12 324 -3T258 25L307 125Q330 110 351 104T392 97Q412 97 423 108T435 140Q435 159 424 173T395 199T358 224T320 254T292 294T280 350Q280 380 289 402T310 444T330 485T340 536Q340 562 326 579T287 597Q246 597
227 567T208 486V0H61V495Z" />
<glyph unicode="&#xe0;" glyph-name="agrave" horiz-adv-x="600" d="M61 138Q61 180 79 211T136 265T238 300T388 319Q384 353 359 372T282 391Q246 391 210 379T131 345L79 441Q130 470 188 489T311 508Q415 508 475 453T535 284V0H415L404 56H400Q362 27 317
8T224 -12Q186 -12 156 -1T105 31T73 79T61 138ZM202 149Q202 125 220 114T271 102Q304 102 333 115T388 149V231Q333 228 297 221T240 204T211 179T202 149ZM151 741H301L390 574H283L151 741Z" />
<glyph unicode="&#xe1;" glyph-name="aacute" horiz-adv-x="600" d="M61 138Q61 180 79 211T136 265T238 300T388 319Q384 353 359 372T282 391Q246 391 210 379T131 345L79 441Q130 470 188 489T311 508Q415 508 475 453T535 284V0H415L404 56H400Q362 27 317
8T224 -12Q186 -12 156 -1T105 31T73 79T61 138ZM202 149Q202 125 220 114T271 102Q304 102 333 115T388 149V231Q333 228 297 221T240 204T211 179T202 149ZM333 574H226L315 741H465L333 574Z" />
<glyph unicode="&#xe2;" glyph-name="acircumflex" horiz-adv-x="600" d="M61 138Q61 180 79 211T136 265T238 300T388 319Q384 353 359 372T282 391Q246 391 210 379T131 345L79 441Q130 470 188 489T311 508Q415 508 475 453T535 284V0H415L404 56H400Q362 27
317 8T224 -12Q186 -12 156 -1T105 31T73 79T61 138ZM202 149Q202 125 220 114T271 102Q304 102 333 115T388 149V231Q333 228 297 221T240 204T211 179T202 149ZM246 741H370L470 574H363L310 669H306L253 574H146L246 741Z" />
<glyph unicode="&#xe3;" glyph-name="atilde" horiz-adv-x="600" d="M61 138Q61 180 79 211T136 265T238 300T388 319Q384 353 359 372T282 391Q246 391 210 379T131 345L79 441Q130 470 188 489T311 508Q415 508 475 453T535 284V0H415L404 56H400Q362 27 317
8T224 -12Q186 -12 156 -1T105 31T73 79T61 138ZM202 149Q202 125 220 114T271 102Q304 102 333 115T388 149V231Q333 228 297 221T240 204T211 179T202 149ZM137 575Q146 648 177 683T254 718Q272 718 287 710T315 692T339 674T361 666Q377 666 387 677T404 718H479Q470
646 439 611T362 575Q343 575 328 583T300 601T276 619T255 628Q239 628 229 617T212 575H137V575Z" />
<glyph unicode="&#xe4;" glyph-name="adieresis" horiz-adv-x="600" d="M61 138Q61 180 79 211T136 265T238 300T388 319Q384 353 359 372T282 391Q246 391 210 379T131 345L79 441Q130 470 188 489T311 508Q415 508 475 453T535 284V0H415L404 56H400Q362 27
317 8T224 -12Q186 -12 156 -1T105 31T73 79T61 138ZM202 149Q202 125 220 114T271 102Q304 102 333 115T388 149V231Q333 228 297 221T240 204T211 179T202 149ZM199 571Q164 571 142 593T120 650Q120 683 142 705T199 728Q234 728 255 706T277 650Q277 616 256
594T199 571ZM417 571Q382 571 361 593T339 650Q339 683 360 705T417 728Q452 728 474 706T496 650Q496 616 474 594T417 571Z" />
<glyph unicode="&#xe5;" glyph-name="aring" horiz-adv-x="600" d="M61 138Q61 180 79 211T136 265T238 300T388 319Q384 353 359 372T282 391Q246 391 210 379T131 345L79 441Q130 470 188 489T311 508Q415 508 475 453T535 284V0H415L404 56H400Q362 27 317
8T224 -12Q186 -12 156 -1T105 31T73 79T61 138ZM202 149Q202 125 220 114T271 102Q304 102 333 115T388 149V231Q333 228 297 221T240 204T211 179T202 149ZM308 548Q257 548 226 575T195 650Q195 697 226 724T308 752Q359 752 390 725T421 650Q421 603 390 576T308
548ZM308 603Q325 603 337 616T349 650Q349 671 337 684T308 697Q291 697 279 684T267 650Q267 629 279 616T308 603Z" />
<glyph unicode="&#xe6;" glyph-name="ae" horiz-adv-x="600" d="M16 138Q16 215 71 256T241 320Q238 355 226 373T184 391Q164 391 136 382T81 357L29 453Q71 478 111 493T194 508Q238 508 265 488T310 435Q336 472 365 490T438 508Q476 508 505 489T553 438T583
362T593 269Q593 249 591 232T586 205H359Q367 154 391 129T450 103Q471 103 489 109T528 129L578 35Q549 12 513 0T445 -12Q391 -12 356 9T294 65Q255 24 222 6T154 -12Q120 -12 95 0T52 32T25 79T16 138ZM476 295Q476 316 474 334T465 366T449 388T424 396Q399
396 381 372T357 295H476ZM148 150Q148 102 194 102Q208 102 224 110T255 136Q249 152 246 171T241 210L240 231Q191 220 170 200T148 150Z" />
<glyph unicode="&#xe7;" glyph-name="ccedilla" horiz-adv-x="600" d="M67 248Q67 310 90 358T153 440T245 490T354 508Q413 508 460 489T540 441L472 350Q417 389 362 389Q298 389 258 351T218 248Q218 183 256 145T357 107Q396 107 429 121T488 154L548 61Q503
23 449 6T343 -12Q284 -12 234 5T147 56T88 137T67 248ZM302 4H388L368 -43Q394 -51 410 -68T426 -117Q426 -143 412 -161T373 -193T317 -212T249 -221L238 -162Q274 -158 297 -148T321 -118Q321 -105 309 -95T262 -76L302 4Z" />
<glyph unicode="&#xe8;" glyph-name="egrave" horiz-adv-x="600" d="M55 248Q55 309 76 357T134 438T216 490T313 508Q370 508 414 490T487 440T531 365T546 270Q546 250 544 232T540 205H206Q214 149 254 125T350 100Q384 100 414 108T478 134L526 46Q484 19
432 4T330 -12Q272 -12 222 5T135 56T77 138T55 248ZM413 302Q413 344 390 370T316 396Q276 396 245 373T204 302H413ZM156 741H306L395 574H288L156 741Z" />
<glyph unicode="&#xe9;" glyph-name="eacute" horiz-adv-x="600" d="M55 248Q55 309 76 357T134 438T216 490T313 508Q370 508 414 490T487 440T531 365T546 270Q546 250 544 232T540 205H206Q214 149 254 125T350 100Q384 100 414 108T478 134L526 46Q484 19
432 4T330 -12Q272 -12 222 5T135 56T77 138T55 248ZM413 302Q413 344 390 370T316 396Q276 396 245 373T204 302H413ZM338 574H231L320 741H470L338 574Z" />
<glyph unicode="&#xea;" glyph-name="ecircumflex" horiz-adv-x="600" d="M55 248Q55 309 76 357T134 438T216 490T313 508Q370 508 414 490T487 440T531 365T546 270Q546 250 544 232T540 205H206Q214 149 254 125T350 100Q384 100 414 108T478 134L526 46Q484
19 432 4T330 -12Q272 -12 222 5T135 56T77 138T55 248ZM413 302Q413 344 390 370T316 396Q276 396 245 373T204 302H413ZM251 741H375L475 574H368L315 669H311L258 574H151L251 741Z" />
<glyph unicode="&#xeb;" glyph-name="edieresis" horiz-adv-x="600" d="M55 248Q55 309 76 357T134 438T216 490T313 508Q370 508 414 490T487 440T531 365T546 270Q546 250 544 232T540 205H206Q214 149 254 125T350 100Q384 100 414 108T478 134L526 46Q484
19 432 4T330 -12Q272 -12 222 5T135 56T77 138T55 248ZM413 302Q413 344 390 370T316 396Q276 396 245 373T204 302H413ZM203 571Q168 571 146 593T124 650Q124 683 146 705T203 728Q238 728 259 706T281 650Q281 616 260 594T203 571ZM421 571Q386 571 365 593T343
650Q343 683 364 705T421 728Q456 728 478 706T500 650Q500 616 478 594T421 571Z" />
<glyph unicode="&#xec;" glyph-name="igrave" horiz-adv-x="600" d="M79 496H425V0H278V381H79V496ZM188 741H338L427 574H320L188 741Z" />
<glyph unicode="&#xed;" glyph-name="iacute" horiz-adv-x="600" d="M79 496H425V0H278V381H79V496ZM370 574H263L352 741H502L370 574Z" />
<glyph unicode="&#xee;" glyph-name="icircumflex" horiz-adv-x="600" d="M79 496H425V0H278V381H79V496ZM283 741H407L507 574H400L347 669H343L290 574H183L283 741Z" />
<glyph unicode="&#xef;" glyph-name="idieresis" horiz-adv-x="600" d="M79 496H425V0H278V381H79V496ZM236 571Q201 571 179 593T157 650Q157 683 179 705T236 728Q271 728 292 706T314 650Q314 616 293 594T236 571ZM454 571Q419 571 398 593T376 650Q376 683
397 705T454 728Q489 728 511 706T533 650Q533 616 511 594T454 571Z" />
<glyph unicode="&#xf0;" glyph-name="eth" horiz-adv-x="600" d="M300 107Q352 107 382 145T413 258Q413 267 413 275T412 292Q386 321 358 333T298 346Q244 346 213 317T181 228Q181 198 190 176T216 138T254 115T300 107ZM407 606Q471 546 510 463T550 266Q550
206 533 155T483 67T403 9T295 -12Q244 -12 199 5T121 53T67 128T47 228Q47 282 65 324T114 395T184 439T268 455Q304 455 337 442T394 400Q380 445 356 481T296 550L147 475L109 540L229 600Q186 628 135 651L199 740Q237 723 273 703T344 658L480 727L518 662L407
606Z" />
<glyph unicode="&#xf1;" glyph-name="ntilde" horiz-adv-x="600" d="M72 496H192L203 430H207Q239 462 280 485T378 508Q462 508 501 454T540 306V0H393V287Q393 337 377 360T320 383Q290 383 268 370T219 331V0H72V496ZM144 575Q153 648 184 683T261 718Q279
718 294 710T322 692T346 674T368 666Q384 666 394 677T411 718H486Q477 646 446 611T369 575Q350 575 335 583T307 601T283 619T262 628Q246 628 236 617T219 575H144V575Z" />
<glyph unicode="&#xf2;" glyph-name="ograve" horiz-adv-x="600" d="M47 248Q47 310 68 358T124 440T205 490T300 508Q349 508 394 491T475 440T532 359T553 248Q553 186 532 138T476 56T395 6T300 -12Q251 -12 206 5T125 56T68 137T47 248ZM198 248Q198 183 223
145T300 107Q351 107 376 145T402 248Q402 313 377 351T300 389Q249 389 224 351T198 248ZM143 741H293L382 574H275L143 741Z" />
<glyph unicode="&#xf3;" glyph-name="oacute" horiz-adv-x="600" d="M47 248Q47 310 68 358T124 440T205 490T300 508Q349 508 394 491T475 440T532 359T553 248Q553 186 532 138T476 56T395 6T300 -12Q251 -12 206 5T125 56T68 137T47 248ZM198 248Q198 183 223
145T300 107Q351 107 376 145T402 248Q402 313 377 351T300 389Q249 389 224 351T198 248ZM325 574H218L307 741H457L325 574Z" />
<glyph unicode="&#xf4;" glyph-name="ocircumflex" horiz-adv-x="600" d="M47 248Q47 310 68 358T124 440T205 490T300 508Q349 508 394 491T475 440T532 359T553 248Q553 186 532 138T476 56T395 6T300 -12Q251 -12 206 5T125 56T68 137T47 248ZM198 248Q198
183 223 145T300 107Q351 107 376 145T402 248Q402 313 377 351T300 389Q249 389 224 351T198 248ZM238 741H362L462 574H355L302 669H298L245 574H138L238 741Z" />
<glyph unicode="&#xf5;" glyph-name="otilde" horiz-adv-x="600" d="M47 248Q47 310 68 358T124 440T205 490T300 508Q349 508 394 491T475 440T532 359T553 248Q553 186 532 138T476 56T395 6T300 -12Q251 -12 206 5T125 56T68 137T47 248ZM198 248Q198 183 223
145T300 107Q351 107 376 145T402 248Q402 313 377 351T300 389Q249 389 224 351T198 248ZM129 575Q138 648 169 683T246 718Q264 718 279 710T307 692T331 674T353 666Q369 666 379 677T396 718H471Q462 646 431 611T354 575Q335 575 320 583T292 601T268 619T247
628Q231 628 221 617T204 575H129V575Z" />
<glyph unicode="&#xf6;" glyph-name="odieresis" horiz-adv-x="600" d="M47 248Q47 310 68 358T124 440T205 490T300 508Q349 508 394 491T475 440T532 359T553 248Q553 186 532 138T476 56T395 6T300 -12Q251 -12 206 5T125 56T68 137T47 248ZM198 248Q198 183
223 145T300 107Q351 107 376 145T402 248Q402 313 377 351T300 389Q249 389 224 351T198 248ZM191 571Q156 571 134 593T112 650Q112 683 134 705T191 728Q226 728 247 706T269 650Q269 616 248 594T191 571ZM409 571Q374 571 353 593T331 650Q331 683 352 705T409
728Q444 728 466 706T488 650Q488 616 466 594T409 571Z" />
<glyph unicode="&#xf7;" glyph-name="divide" horiz-adv-x="600" d="M300 433Q265 433 242 454T219 510Q219 544 242 565T300 587Q335 587 358 566T381 510Q381 476 358 455T300 433ZM219 150Q219 184 242 205T300 227Q335 227 358 206T381 150Q381 116 358 95T300
73Q265 73 242 94T219 150ZM70 382H530V278H70V382Z" />
<glyph unicode="&#xf8;" glyph-name="oslash" horiz-adv-x="600" d="M240 123Q266 102 300 102Q351 102 376 142T402 248Q402 265 401 280T395 309L240 123ZM359 374Q334 394 300 394Q249 394 224 354T198 248Q198 213 205 188L359 374ZM491 424Q520 391 536 347T553
248Q553 186 532 138T476 56T395 6T300 -12Q224 -12 161 28L117 -25L62 17L108 73Q80 105 64 149T47 248Q47 310 68 358T124 440T205 490T300 508Q376 508 438 469L483 523L538 480L491 424Z" />
<glyph unicode="&#xf9;" glyph-name="ugrave" horiz-adv-x="600" d="M525 0H405L394 71H390Q357 33 317 11T223 -12Q138 -12 100 42T62 190V496H209V209Q209 159 224 136T281 113Q309 113 330 125T378 170V496H525V0ZM396 741H546L635 574H528L396 741Z" />
<glyph unicode="&#xfa;" glyph-name="uacute" horiz-adv-x="600" d="M525 0H405L394 71H390Q357 33 317 11T223 -12Q138 -12 100 42T62 190V496H209V209Q209 159 224 136T281 113Q309 113 330 125T378 170V496H525V0ZM578 574H471L560 741H710L578 574Z" />
<glyph unicode="&#xfb;" glyph-name="ucircumflex" horiz-adv-x="600" d="M525 0H405L394 71H390Q357 33 317 11T223 -12Q138 -12 100 42T62 190V496H209V209Q209 159 224 136T281 113Q309 113 330 125T378 170V496H525V0ZM491 741H615L715 574H608L555 669H551L498
574H391L491 741Z" />
<glyph unicode="&#xfc;" glyph-name="udieresis" horiz-adv-x="600" d="M525 0H405L394 71H390Q357 33 317 11T223 -12Q138 -12 100 42T62 190V496H209V209Q209 159 224 136T281 113Q309 113 330 125T378 170V496H525V0ZM444 571Q409 571 387 593T365 650Q365
683 387 705T444 728Q479 728 500 706T522 650Q522 616 501 594T444 571ZM662 571Q627 571 606 593T584 650Q584 683 605 705T662 728Q697 728 719 706T741 650Q741 616 719 594T662 571Z" />
<glyph unicode="&#xfd;" glyph-name="yacute" horiz-adv-x="600" d="M93 -72Q112 -78 132 -78Q175 -78 199 -60T236 -13L246 13L31 496H177L260 283Q274 248 286 211T310 134H314Q324 171 336 208T359 283L432 496H571L375 -5Q357 -52 336 -87T288 -146T226 -182T143
-194Q121 -194 102 -192T67 -184L93 -72V-72ZM332 574H225L314 741H464L332 574Z" />
<glyph unicode="&#xfe;" glyph-name="thorn" horiz-adv-x="600" d="M219 -184H72V701H219V527L215 451Q245 478 280 493T354 508Q400 508 437 490T499 439T539 360T553 256Q553 192 535 143T486 59T418 6T339 -12Q302 -12 272 3T216 42L219 -39V-184ZM219 141Q239
123 262 116T304 108Q324 108 341 116T372 143T394 188T402 254Q402 321 380 354T310 388Q264 388 219 342V141Z" />
<glyph unicode="&#xff;" glyph-name="ydieresis" horiz-adv-x="600" d="M93 -72Q112 -78 132 -78Q175 -78 199 -60T236 -13L246 13L31 496H177L260 283Q274 248 286 211T310 134H314Q324 171 336 208T359 283L432 496H571L375 -5Q357 -52 336 -87T288 -146T226
-182T143 -194Q121 -194 102 -192T67 -184L93 -72V-72ZM198 571Q163 571 141 593T119 650Q119 683 141 705T198 728Q233 728 254 706T276 650Q276 616 255 594T198 571ZM416 571Q381 571 360 593T338 650Q338 683 359 705T416 728Q451 728 473 706T495 650Q495
616 473 594T416 571Z" />
<glyph unicode="&#x2013;" glyph-name="endash" horiz-adv-x="600" d="M80 310H520V199H80V310Z" />
<glyph unicode="&#x2014;" glyph-name="emdash" horiz-adv-x="600" d="M20 310H580V199H20V310Z" />
<glyph unicode="&#x2018;" glyph-name="quoteleft" horiz-adv-x="600" d="M397 619Q344 595 317 561T285 479Q295 482 306 482Q346 482 371 458T397 391Q397 345 370 318T301 290Q245 290 215 332T184 450Q184 532 227 594T359 697L397 619Z" />
<glyph unicode="&#x2019;" glyph-name="quoteright" horiz-adv-x="600" d="M202 368Q307 415 314 507Q303 504 294 504Q253 504 228 529T202 596Q202 642 229 669T298 697Q355 697 385 655T415 537Q415 455 372 393T241 290L202 368Z" />
<glyph unicode="&#x201a;" glyph-name="quotesinglbase" horiz-adv-x="600" d="M202 -152Q307 -105 314 -13Q303 -16 294 -16Q253 -16 228 9T202 76Q202 122 229 149T298 177Q355 177 385 135T415 17Q415 -65 372 -127T241 -230L202 -152Z" />
<glyph unicode="&#x201c;" glyph-name="quotedblleft" horiz-adv-x="600" d="M265 619Q212 595 185 561T153 479Q163 482 174 482Q214 482 239 458T265 391Q265 345 238 318T169 290Q113 290 83 332T52 450Q52 532 95 594T227 697L265 619ZM530 619Q477 595 450
561T418 479Q428 482 439 482Q479 482 504 458T530 391Q530 345 503 318T434 290Q378 290 348 332T317 450Q317 532 360 594T492 697L530 619Z" />
<glyph unicode="&#x201d;" glyph-name="quotedblright" horiz-adv-x="600" d="M70 368Q175 415 182 507Q171 504 162 504Q121 504 96 529T70 596Q70 642 97 669T166 697Q223 697 253 655T283 537Q283 455 240 393T109 290L70 368ZM335 368Q440 415 447 507Q436
504 427 504Q386 504 361 529T335 596Q335 642 362 669T431 697Q488 697 518 655T548 537Q548 455 505 393T374 290L335 368Z" />
<glyph unicode="&#x201e;" glyph-name="quotedblbase" horiz-adv-x="600" d="M70 -152Q175 -105 182 -13Q171 -16 162 -16Q121 -16 96 9T70 76Q70 122 97 149T166 177Q223 177 253 135T283 17Q283 -65 240 -127T109 -230L70 -152ZM335 -152Q440 -105 447 -13Q436
-16 427 -16Q386 -16 361 9T335 76Q335 122 362 149T431 177Q488 177 518 135T548 17Q548 -65 505 -127T374 -230L335 -152Z" />
<glyph unicode="&#x2022;" glyph-name="bullet" horiz-adv-x="600" d="M300 101Q265 101 235 113T183 147T149 198T136 262Q136 296 148 325T183 377T235 411T300 423Q335 423 365 411T417 377T451 326T464 262Q464 227 452 198T417 147T365 113T300 101Z" />
<glyph unicode="&#x2039;" glyph-name="guilsinglleft" horiz-adv-x="600" d="M175 179V325L346 479L408 424L281 252L408 80L346 25L175 179Z" />
<glyph unicode="&#x203a;" glyph-name="guilsinglright" horiz-adv-x="600" d="M319 252L192 424L254 479L425 325V179L254 25L192 80L319 252Z" />
</font>
</defs>
</svg>
